<mxfile host="65bd71144e">
    <diagram id="ombd-WoxeEANmr7rUE96" name="Страница 1">
        <mxGraphModel dx="2144" dy="1683" grid="1" gridSize="10" guides="1" tooltips="1" connect="1" arrows="1" fold="1" page="1" pageScale="1" pageWidth="827" pageHeight="1169" background="#ffffff" math="0" shadow="0">
            <root>
                <mxCell id="0"/>
                <mxCell id="1" parent="0"/>
                <mxCell id="128" value="Player" style="swimlane;fontStyle=0;childLayout=stackLayout;horizontal=1;startSize=26;fillColor=none;horizontalStack=0;resizeParent=1;resizeParentMax=0;resizeLast=0;collapsible=1;marginBottom=0;fontSize=12;strokeColor=#000000;fontColor=#000000;" parent="1" vertex="1">
                    <mxGeometry x="-110" y="-1090" width="280" height="806" as="geometry"/>
                </mxCell>
                <mxCell id="130" value="- hit_point: int" style="text;strokeColor=#000000;fillColor=none;align=left;verticalAlign=top;spacingLeft=4;spacingRight=4;overflow=hidden;rotatable=0;points=[[0,0.5],[1,0.5]];portConstraint=eastwest;fontSize=12;fontColor=#000000;" parent="128" vertex="1">
                    <mxGeometry y="26" width="280" height="26" as="geometry"/>
                </mxCell>
                <mxCell id="131" value="- strength: int" style="text;strokeColor=#000000;fillColor=none;align=left;verticalAlign=top;spacingLeft=4;spacingRight=4;overflow=hidden;rotatable=0;points=[[0,0.5],[1,0.5]];portConstraint=eastwest;fontSize=12;fontColor=#000000;" parent="128" vertex="1">
                    <mxGeometry y="52" width="280" height="26" as="geometry"/>
                </mxCell>
                <mxCell id="157" value="- endurance: int" style="text;strokeColor=#000000;fillColor=none;align=left;verticalAlign=top;spacingLeft=4;spacingRight=4;overflow=hidden;rotatable=0;points=[[0,0.5],[1,0.5]];portConstraint=eastwest;fontSize=12;fontColor=#000000;" parent="128" vertex="1">
                    <mxGeometry y="78" width="280" height="26" as="geometry"/>
                </mxCell>
                <mxCell id="158" value="- dexterity: int" style="text;strokeColor=#000000;fillColor=none;align=left;verticalAlign=top;spacingLeft=4;spacingRight=4;overflow=hidden;rotatable=0;points=[[0,0.5],[1,0.5]];portConstraint=eastwest;fontSize=12;fontColor=#000000;" parent="128" vertex="1">
                    <mxGeometry y="104" width="280" height="26" as="geometry"/>
                </mxCell>
                <mxCell id="159" value="-  armor: int" style="text;strokeColor=#000000;fillColor=none;align=left;verticalAlign=top;spacingLeft=4;spacingRight=4;overflow=hidden;rotatable=0;points=[[0,0.5],[1,0.5]];portConstraint=eastwest;fontSize=12;fontColor=#000000;" parent="128" vertex="1">
                    <mxGeometry y="130" width="280" height="26" as="geometry"/>
                </mxCell>
                <mxCell id="163" value="- coins: unsigned int" style="text;strokeColor=#000000;fillColor=none;align=left;verticalAlign=top;spacingLeft=4;spacingRight=4;overflow=hidden;rotatable=0;points=[[0,0.5],[1,0.5]];portConstraint=eastwest;fontSize=12;fontColor=#000000;" parent="128" vertex="1">
                    <mxGeometry y="156" width="280" height="26" as="geometry"/>
                </mxCell>
                <mxCell id="161" value="+ Player()" style="text;strokeColor=#000000;fillColor=none;align=left;verticalAlign=top;spacingLeft=4;spacingRight=4;overflow=hidden;rotatable=0;points=[[0,0.5],[1,0.5]];portConstraint=eastwest;fontSize=12;fontColor=#000000;" parent="128" vertex="1">
                    <mxGeometry y="182" width="280" height="26" as="geometry"/>
                </mxCell>
                <mxCell id="172" value="+ Player(int, int, int, int, int, unsigned int)" style="text;strokeColor=#000000;fillColor=none;align=left;verticalAlign=top;spacingLeft=4;spacingRight=4;overflow=hidden;rotatable=0;points=[[0,0.5],[1,0.5]];portConstraint=eastwest;fontSize=12;fontColor=#000000;" parent="128" vertex="1">
                    <mxGeometry y="208" width="280" height="26" as="geometry"/>
                </mxCell>
                <mxCell id="171" value="+ Player(const Player&amp;)" style="text;strokeColor=#000000;fillColor=none;align=left;verticalAlign=top;spacingLeft=4;spacingRight=4;overflow=hidden;rotatable=0;points=[[0,0.5],[1,0.5]];portConstraint=eastwest;fontSize=12;fontColor=#000000;" parent="128" vertex="1">
                    <mxGeometry y="234" width="280" height="26" as="geometry"/>
                </mxCell>
                <mxCell id="170" value="+ Player(Player&amp;&amp;)" style="text;strokeColor=#000000;fillColor=none;align=left;verticalAlign=top;spacingLeft=4;spacingRight=4;overflow=hidden;rotatable=0;points=[[0,0.5],[1,0.5]];portConstraint=eastwest;fontSize=12;fontColor=#000000;" parent="128" vertex="1">
                    <mxGeometry y="260" width="280" height="26" as="geometry"/>
                </mxCell>
                <mxCell id="169" value="+ operator=(const Player&amp;): Player&amp;" style="text;strokeColor=#000000;fillColor=none;align=left;verticalAlign=top;spacingLeft=4;spacingRight=4;overflow=hidden;rotatable=0;points=[[0,0.5],[1,0.5]];portConstraint=eastwest;fontSize=12;fontColor=#000000;" parent="128" vertex="1">
                    <mxGeometry y="286" width="280" height="26" as="geometry"/>
                </mxCell>
                <mxCell id="168" value="+ operator=(Player&amp;&amp;): Player&amp;" style="text;strokeColor=#000000;fillColor=none;align=left;verticalAlign=top;spacingLeft=4;spacingRight=4;overflow=hidden;rotatable=0;points=[[0,0.5],[1,0.5]];portConstraint=eastwest;fontSize=12;fontColor=#000000;" parent="128" vertex="1">
                    <mxGeometry y="312" width="280" height="26" as="geometry"/>
                </mxCell>
                <mxCell id="179" value="+ set_hit_point(int)" style="text;strokeColor=#000000;fillColor=none;align=left;verticalAlign=top;spacingLeft=4;spacingRight=4;overflow=hidden;rotatable=0;points=[[0,0.5],[1,0.5]];portConstraint=eastwest;fontSize=12;fontColor=#000000;" parent="128" vertex="1">
                    <mxGeometry y="338" width="280" height="26" as="geometry"/>
                </mxCell>
                <mxCell id="178" value="+ set_strength(int)" style="text;strokeColor=#000000;fillColor=none;align=left;verticalAlign=top;spacingLeft=4;spacingRight=4;overflow=hidden;rotatable=0;points=[[0,0.5],[1,0.5]];portConstraint=eastwest;fontSize=12;fontColor=#000000;" parent="128" vertex="1">
                    <mxGeometry y="364" width="280" height="26" as="geometry"/>
                </mxCell>
                <mxCell id="177" value="+ set_sendurance(int)" style="text;strokeColor=#000000;fillColor=none;align=left;verticalAlign=top;spacingLeft=4;spacingRight=4;overflow=hidden;rotatable=0;points=[[0,0.5],[1,0.5]];portConstraint=eastwest;fontSize=12;fontColor=#000000;" parent="128" vertex="1">
                    <mxGeometry y="390" width="280" height="26" as="geometry"/>
                </mxCell>
                <mxCell id="176" value="+ set_dexterity(int)" style="text;strokeColor=#000000;fillColor=none;align=left;verticalAlign=top;spacingLeft=4;spacingRight=4;overflow=hidden;rotatable=0;points=[[0,0.5],[1,0.5]];portConstraint=eastwest;fontSize=12;fontColor=#000000;" parent="128" vertex="1">
                    <mxGeometry y="416" width="280" height="26" as="geometry"/>
                </mxCell>
                <mxCell id="175" value="+ set_armor(int)" style="text;strokeColor=#000000;fillColor=none;align=left;verticalAlign=top;spacingLeft=4;spacingRight=4;overflow=hidden;rotatable=0;points=[[0,0.5],[1,0.5]];portConstraint=eastwest;fontSize=12;fontColor=#000000;" parent="128" vertex="1">
                    <mxGeometry y="442" width="280" height="26" as="geometry"/>
                </mxCell>
                <mxCell id="182" value="+ set_coins(unsigned int)" style="text;strokeColor=#000000;fillColor=none;align=left;verticalAlign=top;spacingLeft=4;spacingRight=4;overflow=hidden;rotatable=0;points=[[0,0.5],[1,0.5]];portConstraint=eastwest;fontSize=12;fontColor=#000000;" parent="128" vertex="1">
                    <mxGeometry y="468" width="280" height="26" as="geometry"/>
                </mxCell>
                <mxCell id="188" value="+ add_hit_point(int)" style="text;strokeColor=#000000;fillColor=none;align=left;verticalAlign=top;spacingLeft=4;spacingRight=4;overflow=hidden;rotatable=0;points=[[0,0.5],[1,0.5]];portConstraint=eastwest;fontSize=12;fontColor=#000000;" parent="128" vertex="1">
                    <mxGeometry y="494" width="280" height="26" as="geometry"/>
                </mxCell>
                <mxCell id="187" value="+ add_strength(int)" style="text;strokeColor=#000000;fillColor=none;align=left;verticalAlign=top;spacingLeft=4;spacingRight=4;overflow=hidden;rotatable=0;points=[[0,0.5],[1,0.5]];portConstraint=eastwest;fontSize=12;fontColor=#000000;" parent="128" vertex="1">
                    <mxGeometry y="520" width="280" height="26" as="geometry"/>
                </mxCell>
                <mxCell id="186" value="+ add_endurance(int)" style="text;strokeColor=#000000;fillColor=none;align=left;verticalAlign=top;spacingLeft=4;spacingRight=4;overflow=hidden;rotatable=0;points=[[0,0.5],[1,0.5]];portConstraint=eastwest;fontSize=12;fontColor=#000000;" parent="128" vertex="1">
                    <mxGeometry y="546" width="280" height="26" as="geometry"/>
                </mxCell>
                <mxCell id="185" value="+ add_dexterity(int) " style="text;strokeColor=#000000;fillColor=none;align=left;verticalAlign=top;spacingLeft=4;spacingRight=4;overflow=hidden;rotatable=0;points=[[0,0.5],[1,0.5]];portConstraint=eastwest;fontSize=12;fontColor=#000000;" parent="128" vertex="1">
                    <mxGeometry y="572" width="280" height="26" as="geometry"/>
                </mxCell>
                <mxCell id="184" value="+ add_armor(int)" style="text;strokeColor=#000000;fillColor=none;align=left;verticalAlign=top;spacingLeft=4;spacingRight=4;overflow=hidden;rotatable=0;points=[[0,0.5],[1,0.5]];portConstraint=eastwest;fontSize=12;fontColor=#000000;" parent="128" vertex="1">
                    <mxGeometry y="598" width="280" height="26" as="geometry"/>
                </mxCell>
                <mxCell id="183" value="+ add_coins(long int): bool" style="text;strokeColor=#000000;fillColor=none;align=left;verticalAlign=top;spacingLeft=4;spacingRight=4;overflow=hidden;rotatable=0;points=[[0,0.5],[1,0.5]];portConstraint=eastwest;fontSize=12;fontColor=#000000;" parent="128" vertex="1">
                    <mxGeometry y="624" width="280" height="26" as="geometry"/>
                </mxCell>
                <mxCell id="192" value="+ get_hit_point(): int" style="text;strokeColor=#000000;fillColor=none;align=left;verticalAlign=top;spacingLeft=4;spacingRight=4;overflow=hidden;rotatable=0;points=[[0,0.5],[1,0.5]];portConstraint=eastwest;fontSize=12;fontColor=#000000;" parent="128" vertex="1">
                    <mxGeometry y="650" width="280" height="26" as="geometry"/>
                </mxCell>
                <mxCell id="196" value="+ get_strength(): int" style="text;strokeColor=#000000;fillColor=none;align=left;verticalAlign=top;spacingLeft=4;spacingRight=4;overflow=hidden;rotatable=0;points=[[0,0.5],[1,0.5]];portConstraint=eastwest;fontSize=12;fontColor=#000000;" parent="128" vertex="1">
                    <mxGeometry y="676" width="280" height="26" as="geometry"/>
                </mxCell>
                <mxCell id="195" value="+ get_endurance(): int" style="text;strokeColor=#000000;fillColor=none;align=left;verticalAlign=top;spacingLeft=4;spacingRight=4;overflow=hidden;rotatable=0;points=[[0,0.5],[1,0.5]];portConstraint=eastwest;fontSize=12;fontColor=#000000;" parent="128" vertex="1">
                    <mxGeometry y="702" width="280" height="26" as="geometry"/>
                </mxCell>
                <mxCell id="194" value="+ git_dexterity(): int" style="text;strokeColor=#000000;fillColor=none;align=left;verticalAlign=top;spacingLeft=4;spacingRight=4;overflow=hidden;rotatable=0;points=[[0,0.5],[1,0.5]];portConstraint=eastwest;fontSize=12;fontColor=#000000;" parent="128" vertex="1">
                    <mxGeometry y="728" width="280" height="26" as="geometry"/>
                </mxCell>
                <mxCell id="193" value="+ get_armor(): int" style="text;strokeColor=#000000;fillColor=none;align=left;verticalAlign=top;spacingLeft=4;spacingRight=4;overflow=hidden;rotatable=0;points=[[0,0.5],[1,0.5]];portConstraint=eastwest;fontSize=12;fontColor=#000000;" parent="128" vertex="1">
                    <mxGeometry y="754" width="280" height="26" as="geometry"/>
                </mxCell>
                <mxCell id="191" value="+ get_coins(): unsigned int" style="text;strokeColor=#000000;fillColor=none;align=left;verticalAlign=top;spacingLeft=4;spacingRight=4;overflow=hidden;rotatable=0;points=[[0,0.5],[1,0.5]];portConstraint=eastwest;fontSize=12;fontColor=#000000;" parent="128" vertex="1">
                    <mxGeometry y="780" width="280" height="26" as="geometry"/>
                </mxCell>
                <mxCell id="132" value="Field" style="swimlane;fontStyle=0;childLayout=stackLayout;horizontal=1;startSize=26;fillColor=none;horizontalStack=0;resizeParent=1;resizeParentMax=0;resizeLast=0;collapsible=1;marginBottom=0;fontSize=12;fontColor=#000000;strokeColor=#000000;" parent="1" vertex="1">
                    <mxGeometry x="-480" y="-960" width="340" height="676" as="geometry">
                        <mxRectangle x="400" y="200" width="90" height="26" as="alternateBounds"/>
                    </mxGeometry>
                </mxCell>
                <mxCell id="133" value="- width: unsigned int" style="text;strokeColor=#000000;fillColor=none;align=left;verticalAlign=top;spacingLeft=4;spacingRight=4;overflow=hidden;rotatable=0;points=[[0,0.5],[1,0.5]];portConstraint=eastwest;fontSize=12;fontColor=#000000;" parent="132" vertex="1">
                    <mxGeometry y="26" width="340" height="26" as="geometry"/>
                </mxCell>
                <mxCell id="134" value="- length: unsigned int" style="text;strokeColor=#000000;fillColor=none;align=left;verticalAlign=top;spacingLeft=4;spacingRight=4;overflow=hidden;rotatable=0;points=[[0,0.5],[1,0.5]];portConstraint=eastwest;fontSize=12;fontColor=#000000;" parent="132" vertex="1">
                    <mxGeometry y="52" width="340" height="26" as="geometry"/>
                </mxCell>
                <mxCell id="248" value="- coord: std::pair &lt;long int, long int&gt;" style="text;strokeColor=#000000;fillColor=none;align=left;verticalAlign=top;spacingLeft=4;spacingRight=4;overflow=hidden;rotatable=0;points=[[0,0.5],[1,0.5]];portConstraint=eastwest;fontSize=12;fontColor=#000000;" parent="132" vertex="1">
                    <mxGeometry y="78" width="340" height="26" as="geometry"/>
                </mxCell>
                <mxCell id="732" value="- event_for_null: CellEvent*" style="text;strokeColor=#000000;fillColor=none;align=left;verticalAlign=top;spacingLeft=4;spacingRight=4;overflow=hidden;rotatable=0;points=[[0,0.5],[1,0.5]];portConstraint=eastwest;fontSize=12;fontColor=#000000;" vertex="1" parent="132">
                    <mxGeometry y="104" width="340" height="26" as="geometry"/>
                </mxCell>
                <mxCell id="135" value="- map: std::vector&lt;std::vector&lt;Cell&gt;&gt;" style="text;strokeColor=#000000;fillColor=none;align=left;verticalAlign=top;spacingLeft=4;spacingRight=4;overflow=hidden;rotatable=0;points=[[0,0.5],[1,0.5]];portConstraint=eastwest;fontSize=12;fontColor=#000000;" parent="132" vertex="1">
                    <mxGeometry y="130" width="340" height="26" as="geometry"/>
                </mxCell>
                <mxCell id="201" value="+ Field()" style="text;strokeColor=#000000;fillColor=none;align=left;verticalAlign=top;spacingLeft=4;spacingRight=4;overflow=hidden;rotatable=0;points=[[0,0.5],[1,0.5]];portConstraint=eastwest;fontSize=12;fontColor=#000000;" parent="132" vertex="1">
                    <mxGeometry y="156" width="340" height="26" as="geometry"/>
                </mxCell>
                <mxCell id="251" value="+ Field(unsigned int, unsgned int,std::pair &lt;long int, long int&gt;)" style="text;strokeColor=#000000;fillColor=none;align=left;verticalAlign=top;spacingLeft=4;spacingRight=4;overflow=hidden;rotatable=0;points=[[0,0.5],[1,0.5]];portConstraint=eastwest;fontSize=12;fontColor=#000000;" parent="132" vertex="1">
                    <mxGeometry y="182" width="340" height="26" as="geometry"/>
                </mxCell>
                <mxCell id="250" value="+ Field(unsigned int, unsgned int, long int, long int)" style="text;strokeColor=#000000;fillColor=none;align=left;verticalAlign=top;spacingLeft=4;spacingRight=4;overflow=hidden;rotatable=0;points=[[0,0.5],[1,0.5]];portConstraint=eastwest;fontSize=12;fontColor=#000000;" parent="132" vertex="1">
                    <mxGeometry y="208" width="340" height="26" as="geometry"/>
                </mxCell>
                <mxCell id="200" value="+ Field(unsigned int, unsgned int)" style="text;strokeColor=#000000;fillColor=none;align=left;verticalAlign=top;spacingLeft=4;spacingRight=4;overflow=hidden;rotatable=0;points=[[0,0.5],[1,0.5]];portConstraint=eastwest;fontSize=12;fontColor=#000000;" parent="132" vertex="1">
                    <mxGeometry y="234" width="340" height="26" as="geometry"/>
                </mxCell>
                <mxCell id="199" value="+ Field(const Field&amp;)" style="text;strokeColor=#000000;fillColor=none;align=left;verticalAlign=top;spacingLeft=4;spacingRight=4;overflow=hidden;rotatable=0;points=[[0,0.5],[1,0.5]];portConstraint=eastwest;fontSize=12;fontColor=#000000;" parent="132" vertex="1">
                    <mxGeometry y="260" width="340" height="26" as="geometry"/>
                </mxCell>
                <mxCell id="198" value="+ Field(Field&amp;&amp;)" style="text;strokeColor=#000000;fillColor=none;align=left;verticalAlign=top;spacingLeft=4;spacingRight=4;overflow=hidden;rotatable=0;points=[[0,0.5],[1,0.5]];portConstraint=eastwest;fontSize=12;fontColor=#000000;" parent="132" vertex="1">
                    <mxGeometry y="286" width="340" height="26" as="geometry"/>
                </mxCell>
                <mxCell id="207" value="+ opertor=(const Field&amp;): Field&amp;" style="text;strokeColor=#000000;fillColor=none;align=left;verticalAlign=top;spacingLeft=4;spacingRight=4;overflow=hidden;rotatable=0;points=[[0,0.5],[1,0.5]];portConstraint=eastwest;fontSize=12;fontColor=#000000;" parent="132" vertex="1">
                    <mxGeometry y="312" width="340" height="26" as="geometry"/>
                </mxCell>
                <mxCell id="206" value="+ operator=(Field&amp;&amp;): Field&amp;" style="text;strokeColor=#000000;fillColor=none;align=left;verticalAlign=top;spacingLeft=4;spacingRight=4;overflow=hidden;rotatable=0;points=[[0,0.5],[1,0.5]];portConstraint=eastwest;fontSize=12;fontColor=#000000;" parent="132" vertex="1">
                    <mxGeometry y="338" width="340" height="26" as="geometry"/>
                </mxCell>
                <mxCell id="735" value="+ move_player(DIrection): bool" style="text;strokeColor=#000000;fillColor=none;align=left;verticalAlign=top;spacingLeft=4;spacingRight=4;overflow=hidden;rotatable=0;points=[[0,0.5],[1,0.5]];portConstraint=eastwest;fontSize=12;fontColor=#000000;" vertex="1" parent="132">
                    <mxGeometry y="364" width="340" height="26" as="geometry"/>
                </mxCell>
                <mxCell id="734" value="+ trigger_cell(): GameStatus" style="text;strokeColor=#000000;fillColor=none;align=left;verticalAlign=top;spacingLeft=4;spacingRight=4;overflow=hidden;rotatable=0;points=[[0,0.5],[1,0.5]];portConstraint=eastwest;fontSize=12;fontColor=#000000;" vertex="1" parent="132">
                    <mxGeometry y="390" width="340" height="26" as="geometry"/>
                </mxCell>
                <mxCell id="254" value="+ set_coord(std::pair &lt;long int, long int&gt;" style="text;strokeColor=#000000;fillColor=none;align=left;verticalAlign=top;spacingLeft=4;spacingRight=4;overflow=hidden;rotatable=0;points=[[0,0.5],[1,0.5]];portConstraint=eastwest;fontSize=12;fontColor=#000000;" parent="132" vertex="1">
                    <mxGeometry y="416" width="340" height="26" as="geometry"/>
                </mxCell>
                <mxCell id="253" value="+ set_coord(long int, long int)" style="text;strokeColor=#000000;fillColor=none;align=left;verticalAlign=top;spacingLeft=4;spacingRight=4;overflow=hidden;rotatable=0;points=[[0,0.5],[1,0.5]];portConstraint=eastwest;fontSize=12;fontColor=#000000;" parent="132" vertex="1">
                    <mxGeometry y="442" width="340" height="26" as="geometry"/>
                </mxCell>
                <mxCell id="737" value="+ set_event_for_null(CellEvent*)" style="text;strokeColor=#000000;fillColor=none;align=left;verticalAlign=top;spacingLeft=4;spacingRight=4;overflow=hidden;rotatable=0;points=[[0,0.5],[1,0.5]];portConstraint=eastwest;fontSize=12;fontColor=#000000;" vertex="1" parent="132">
                    <mxGeometry y="468" width="340" height="26" as="geometry"/>
                </mxCell>
                <mxCell id="736" value="+ get_event_for_null(): CellEvent*" style="text;strokeColor=#000000;fillColor=none;align=left;verticalAlign=top;spacingLeft=4;spacingRight=4;overflow=hidden;rotatable=0;points=[[0,0.5],[1,0.5]];portConstraint=eastwest;fontSize=12;fontColor=#000000;" vertex="1" parent="132">
                    <mxGeometry y="494" width="340" height="26" as="geometry"/>
                </mxCell>
                <mxCell id="205" value="+ get_cell(std::pair&lt;long int, long int&gt;): Cell*" style="text;strokeColor=#000000;fillColor=none;align=left;verticalAlign=top;spacingLeft=4;spacingRight=4;overflow=hidden;rotatable=0;points=[[0,0.5],[1,0.5]];portConstraint=eastwest;fontSize=12;fontColor=#000000;" parent="132" vertex="1">
                    <mxGeometry y="520" width="340" height="26" as="geometry"/>
                </mxCell>
                <mxCell id="204" value="+ get_cell(long int, long int): Cell*" style="text;strokeColor=#000000;fillColor=none;align=left;verticalAlign=top;spacingLeft=4;spacingRight=4;overflow=hidden;rotatable=0;points=[[0,0.5],[1,0.5]];portConstraint=eastwest;fontSize=12;fontColor=#000000;" parent="132" vertex="1">
                    <mxGeometry y="546" width="340" height="26" as="geometry"/>
                </mxCell>
                <mxCell id="252" value="+ get_player_cell(): Cell*" style="text;strokeColor=#000000;fillColor=none;align=left;verticalAlign=top;spacingLeft=4;spacingRight=4;overflow=hidden;rotatable=0;points=[[0,0.5],[1,0.5]];portConstraint=eastwest;fontSize=12;fontColor=#000000;" parent="132" vertex="1">
                    <mxGeometry y="572" width="340" height="26" as="geometry"/>
                </mxCell>
                <mxCell id="256" value="+ get_coord(): std:pair &lt;long int, long int&gt;" style="text;strokeColor=#000000;fillColor=none;align=left;verticalAlign=top;spacingLeft=4;spacingRight=4;overflow=hidden;rotatable=0;points=[[0,0.5],[1,0.5]];portConstraint=eastwest;fontSize=12;fontColor=#000000;" parent="132" vertex="1">
                    <mxGeometry y="598" width="340" height="26" as="geometry"/>
                </mxCell>
                <mxCell id="203" value="+ get_width(): unsgned int" style="text;strokeColor=#000000;fillColor=none;align=left;verticalAlign=top;spacingLeft=4;spacingRight=4;overflow=hidden;rotatable=0;points=[[0,0.5],[1,0.5]];portConstraint=eastwest;fontSize=12;fontColor=#000000;" parent="132" vertex="1">
                    <mxGeometry y="624" width="340" height="26" as="geometry"/>
                </mxCell>
                <mxCell id="202" value="+ get_length(): unsigned int" style="text;strokeColor=#000000;fillColor=none;align=left;verticalAlign=top;spacingLeft=4;spacingRight=4;overflow=hidden;rotatable=0;points=[[0,0.5],[1,0.5]];portConstraint=eastwest;fontSize=12;fontColor=#000000;" parent="132" vertex="1">
                    <mxGeometry y="650" width="340" height="26" as="geometry"/>
                </mxCell>
                <mxCell id="140" value="Cell" style="swimlane;fontStyle=0;childLayout=stackLayout;horizontal=1;startSize=26;fillColor=none;horizontalStack=0;resizeParent=1;resizeParentMax=0;resizeLast=0;collapsible=1;marginBottom=0;fontSize=12;fontColor=#000000;strokeColor=#000000;" parent="1" vertex="1">
                    <mxGeometry x="-680" y="-752" width="180" height="338" as="geometry"/>
                </mxCell>
                <mxCell id="141" value="- event: CellEvent*" style="text;strokeColor=#000000;fillColor=none;align=left;verticalAlign=top;spacingLeft=4;spacingRight=4;overflow=hidden;rotatable=0;points=[[0,0.5],[1,0.5]];portConstraint=eastwest;fontSize=12;fontColor=#000000;" parent="140" vertex="1">
                    <mxGeometry y="26" width="180" height="26" as="geometry"/>
                </mxCell>
                <mxCell id="142" value="- passable: bool" style="text;strokeColor=#000000;fillColor=none;align=left;verticalAlign=top;spacingLeft=4;spacingRight=4;overflow=hidden;rotatable=0;points=[[0,0.5],[1,0.5]];portConstraint=eastwest;fontSize=12;fontColor=#000000;" parent="140" vertex="1">
                    <mxGeometry y="52" width="180" height="26" as="geometry"/>
                </mxCell>
                <mxCell id="219" value="+ Cell()" style="text;strokeColor=#000000;fillColor=none;align=left;verticalAlign=top;spacingLeft=4;spacingRight=4;overflow=hidden;rotatable=0;points=[[0,0.5],[1,0.5]];portConstraint=eastwest;fontSize=12;fontColor=#000000;" parent="140" vertex="1">
                    <mxGeometry y="78" width="180" height="26" as="geometry"/>
                </mxCell>
                <mxCell id="218" value="+ Cell(bool)" style="text;strokeColor=#000000;fillColor=none;align=left;verticalAlign=top;spacingLeft=4;spacingRight=4;overflow=hidden;rotatable=0;points=[[0,0.5],[1,0.5]];portConstraint=eastwest;fontSize=12;fontColor=#000000;" parent="140" vertex="1">
                    <mxGeometry y="104" width="180" height="26" as="geometry"/>
                </mxCell>
                <mxCell id="217" value="+ Cell(const Cell&amp;)" style="text;strokeColor=#000000;fillColor=none;align=left;verticalAlign=top;spacingLeft=4;spacingRight=4;overflow=hidden;rotatable=0;points=[[0,0.5],[1,0.5]];portConstraint=eastwest;fontSize=12;fontColor=#000000;" parent="140" vertex="1">
                    <mxGeometry y="130" width="180" height="26" as="geometry"/>
                </mxCell>
                <mxCell id="216" value="+ Cell(Cell&amp;&amp;)" style="text;strokeColor=#000000;fillColor=none;align=left;verticalAlign=top;spacingLeft=4;spacingRight=4;overflow=hidden;rotatable=0;points=[[0,0.5],[1,0.5]];portConstraint=eastwest;fontSize=12;fontColor=#000000;" parent="140" vertex="1">
                    <mxGeometry y="156" width="180" height="26" as="geometry"/>
                </mxCell>
                <mxCell id="215" value="+ operator=(const Cell&amp;): Cell&amp;" style="text;strokeColor=#000000;fillColor=none;align=left;verticalAlign=top;spacingLeft=4;spacingRight=4;overflow=hidden;rotatable=0;points=[[0,0.5],[1,0.5]];portConstraint=eastwest;fontSize=12;fontColor=#000000;" parent="140" vertex="1">
                    <mxGeometry y="182" width="180" height="26" as="geometry"/>
                </mxCell>
                <mxCell id="214" value="+ operator=(Cell&amp;&amp;): Cell&amp;" style="text;strokeColor=#000000;fillColor=none;align=left;verticalAlign=top;spacingLeft=4;spacingRight=4;overflow=hidden;rotatable=0;points=[[0,0.5],[1,0.5]];portConstraint=eastwest;fontSize=12;fontColor=#000000;" parent="140" vertex="1">
                    <mxGeometry y="208" width="180" height="26" as="geometry"/>
                </mxCell>
                <mxCell id="213" value="+ get_event(): CellEvent*" style="text;strokeColor=#000000;fillColor=none;align=left;verticalAlign=top;spacingLeft=4;spacingRight=4;overflow=hidden;rotatable=0;points=[[0,0.5],[1,0.5]];portConstraint=eastwest;fontSize=12;fontColor=#000000;" parent="140" vertex="1">
                    <mxGeometry y="234" width="180" height="26" as="geometry"/>
                </mxCell>
                <mxCell id="211" value="+ is_passable(): bool" style="text;strokeColor=#000000;fillColor=none;align=left;verticalAlign=top;spacingLeft=4;spacingRight=4;overflow=hidden;rotatable=0;points=[[0,0.5],[1,0.5]];portConstraint=eastwest;fontSize=12;fontColor=#000000;" parent="140" vertex="1">
                    <mxGeometry y="260" width="180" height="26" as="geometry"/>
                </mxCell>
                <mxCell id="209" value="+ set_passable(bool)" style="text;strokeColor=#000000;fillColor=none;align=left;verticalAlign=top;spacingLeft=4;spacingRight=4;overflow=hidden;rotatable=0;points=[[0,0.5],[1,0.5]];portConstraint=eastwest;fontSize=12;fontColor=#000000;" parent="140" vertex="1">
                    <mxGeometry y="286" width="180" height="26" as="geometry"/>
                </mxCell>
                <mxCell id="208" value="+ set_event(CellEvent*)" style="text;strokeColor=#000000;fillColor=none;align=left;verticalAlign=top;spacingLeft=4;spacingRight=4;overflow=hidden;rotatable=0;points=[[0,0.5],[1,0.5]];portConstraint=eastwest;fontSize=12;fontColor=#000000;" parent="140" vertex="1">
                    <mxGeometry y="312" width="180" height="26" as="geometry"/>
                </mxCell>
                <mxCell id="144" value="CellEvent" style="swimlane;fontStyle=0;childLayout=stackLayout;horizontal=1;startSize=26;fillColor=none;horizontalStack=0;resizeParent=1;resizeParentMax=0;resizeLast=0;collapsible=1;marginBottom=0;fontSize=12;fontColor=#000000;strokeColor=#000000;" parent="1" vertex="1">
                    <mxGeometry x="-800" y="-160" width="210" height="52" as="geometry"/>
                </mxCell>
                <mxCell id="145" value="+ virtual trigger(): GameStatus" style="text;strokeColor=#000000;fillColor=none;align=left;verticalAlign=top;spacingLeft=4;spacingRight=4;overflow=hidden;rotatable=0;points=[[0,0.5],[1,0.5]];portConstraint=eastwest;fontSize=12;fontColor=#000000;" parent="144" vertex="1">
                    <mxGeometry y="26" width="210" height="26" as="geometry"/>
                </mxCell>
                <mxCell id="220" value="CellView" style="swimlane;fontStyle=0;childLayout=stackLayout;horizontal=1;startSize=26;fillColor=none;horizontalStack=0;resizeParent=1;resizeParentMax=0;resizeLast=0;collapsible=1;marginBottom=0;fontColor=#000000;strokeColor=#000000;" parent="1" vertex="1">
                    <mxGeometry x="-640" y="-370" width="140" height="52" as="geometry"/>
                </mxCell>
                <mxCell id="221" value="+ cell_view(Cell*): char" style="text;strokeColor=#000000;fillColor=none;align=left;verticalAlign=top;spacingLeft=4;spacingRight=4;overflow=hidden;rotatable=0;points=[[0,0.5],[1,0.5]];portConstraint=eastwest;fontColor=#000000;" parent="220" vertex="1">
                    <mxGeometry y="26" width="140" height="26" as="geometry"/>
                </mxCell>
                <mxCell id="224" value="FieldView" style="swimlane;fontStyle=0;childLayout=stackLayout;horizontal=1;startSize=26;fillColor=none;horizontalStack=0;resizeParent=1;resizeParentMax=0;resizeLast=0;collapsible=1;marginBottom=0;fontColor=#000000;strokeColor=#000000;" parent="1" vertex="1">
                    <mxGeometry y="-240" width="260" height="182" as="geometry"/>
                </mxCell>
                <mxCell id="225" value="- width: unsigned int" style="text;strokeColor=#000000;fillColor=none;align=left;verticalAlign=top;spacingLeft=4;spacingRight=4;overflow=hidden;rotatable=0;points=[[0,0.5],[1,0.5]];portConstraint=eastwest;fontColor=#000000;" parent="224" vertex="1">
                    <mxGeometry y="26" width="260" height="26" as="geometry"/>
                </mxCell>
                <mxCell id="226" value="- length: unsigned int" style="text;strokeColor=#000000;fillColor=none;align=left;verticalAlign=top;spacingLeft=4;spacingRight=4;overflow=hidden;rotatable=0;points=[[0,0.5],[1,0.5]];portConstraint=eastwest;fontColor=#000000;" parent="224" vertex="1">
                    <mxGeometry y="52" width="260" height="26" as="geometry"/>
                </mxCell>
                <mxCell id="227" value="- map: std::vector&lt;std::vector&lt;char&gt;&gt;" style="text;strokeColor=#000000;fillColor=none;align=left;verticalAlign=top;spacingLeft=4;spacingRight=4;overflow=hidden;rotatable=0;points=[[0,0.5],[1,0.5]];portConstraint=eastwest;fontColor=#000000;" parent="224" vertex="1">
                    <mxGeometry y="78" width="260" height="26" as="geometry"/>
                </mxCell>
                <mxCell id="230" value="+ set_field(Field*)" style="text;strokeColor=#000000;fillColor=none;align=left;verticalAlign=top;spacingLeft=4;spacingRight=4;overflow=hidden;rotatable=0;points=[[0,0.5],[1,0.5]];portConstraint=eastwest;fontColor=#000000;" parent="224" vertex="1">
                    <mxGeometry y="104" width="260" height="26" as="geometry"/>
                </mxCell>
                <mxCell id="231" value="+ get_field(): std::vector&lt;std::vector&lt;char&gt;&gt;&amp;" style="text;strokeColor=#000000;fillColor=none;align=left;verticalAlign=top;spacingLeft=4;spacingRight=4;overflow=hidden;rotatable=0;points=[[0,0.5],[1,0.5]];portConstraint=eastwest;fontColor=#000000;" parent="224" vertex="1">
                    <mxGeometry y="130" width="260" height="26" as="geometry"/>
                </mxCell>
                <mxCell id="232" value="+ print()" style="text;strokeColor=#000000;fillColor=none;align=left;verticalAlign=top;spacingLeft=4;spacingRight=4;overflow=hidden;rotatable=0;points=[[0,0.5],[1,0.5]];portConstraint=eastwest;fontColor=#000000;" parent="224" vertex="1">
                    <mxGeometry y="156" width="260" height="26" as="geometry"/>
                </mxCell>
                <mxCell id="239" value="" style="endArrow=none;startArrow=diamondThin;endFill=0;startFill=0;html=1;verticalAlign=bottom;labelBackgroundColor=none;strokeWidth=1;startSize=8;endSize=8;elbow=vertical;fontColor=#000000;strokeColor=#000000;edgeStyle=orthogonalEdgeStyle;entryX=0.5;entryY=0;entryDx=0;entryDy=0;exitX=0;exitY=0.5;exitDx=0;exitDy=0;" parent="1" source="141" target="144" edge="1">
                    <mxGeometry width="160" relative="1" as="geometry">
                        <mxPoint x="-750" y="-430" as="sourcePoint"/>
                        <mxPoint x="-680" y="-380" as="targetPoint"/>
                        <Array as="points">
                            <mxPoint x="-695" y="-713"/>
                        </Array>
                    </mxGeometry>
                </mxCell>
                <mxCell id="259" value="FacadePlayer" style="swimlane;fontStyle=0;childLayout=stackLayout;horizontal=1;startSize=26;fillColor=none;horizontalStack=0;resizeParent=1;resizeParentMax=0;resizeLast=0;collapsible=1;marginBottom=0;fontSize=12;fontColor=#000000;strokeColor=#000000;" parent="1" vertex="1">
                    <mxGeometry x="-370" y="-1140" width="240" height="130" as="geometry"/>
                </mxCell>
                <mxCell id="260" value="- player: Player*" style="text;strokeColor=#000000;fillColor=none;align=left;verticalAlign=top;spacingLeft=4;spacingRight=4;overflow=hidden;rotatable=0;points=[[0,0.5],[1,0.5]];portConstraint=eastwest;fontSize=12;fontColor=#000000;" parent="259" vertex="1">
                    <mxGeometry y="26" width="240" height="26" as="geometry"/>
                </mxCell>
                <mxCell id="264" value="- field: Field*" style="text;strokeColor=#000000;fillColor=none;align=left;verticalAlign=top;spacingLeft=4;spacingRight=4;overflow=hidden;rotatable=0;points=[[0,0.5],[1,0.5]];portConstraint=eastwest;fontSize=12;fontColor=#000000;" parent="259" vertex="1">
                    <mxGeometry y="52" width="240" height="26" as="geometry"/>
                </mxCell>
                <mxCell id="262" value="+ FacadePlayer(Player*, Field*)" style="text;strokeColor=#000000;fillColor=none;align=left;verticalAlign=top;spacingLeft=4;spacingRight=4;overflow=hidden;rotatable=0;points=[[0,0.5],[1,0.5]];portConstraint=eastwest;fontSize=12;fontColor=#000000;" parent="259" vertex="1">
                    <mxGeometry y="78" width="240" height="26" as="geometry"/>
                </mxCell>
                <mxCell id="261" value="+ move_player(Direction)" style="text;strokeColor=#000000;fillColor=none;align=left;verticalAlign=top;spacingLeft=4;spacingRight=4;overflow=hidden;rotatable=0;points=[[0,0.5],[1,0.5]];portConstraint=eastwest;fontSize=12;fontColor=#000000;" parent="259" vertex="1">
                    <mxGeometry y="104" width="240" height="26" as="geometry"/>
                </mxCell>
                <mxCell id="271" value="" style="endArrow=none;startArrow=diamondThin;endFill=0;startFill=0;html=1;verticalAlign=bottom;labelBackgroundColor=none;strokeWidth=1;startSize=8;endSize=8;fontFamily=Helvetica;fontSize=12;fontColor=#000000;strokeColor=#000000;edgeStyle=orthogonalEdgeStyle;entryX=0.5;entryY=0;entryDx=0;entryDy=0;exitX=0;exitY=0.5;exitDx=0;exitDy=0;" parent="1" source="264" target="132" edge="1">
                    <mxGeometry width="160" relative="1" as="geometry">
                        <mxPoint x="-410" y="-1070" as="sourcePoint"/>
                        <mxPoint x="-130" y="-1020" as="targetPoint"/>
                        <Array as="points">
                            <mxPoint x="-400" y="-1075"/>
                            <mxPoint x="-400" y="-970"/>
                            <mxPoint x="-310" y="-970"/>
                        </Array>
                    </mxGeometry>
                </mxCell>
                <mxCell id="272" value="" style="endArrow=none;startArrow=diamondThin;endFill=0;startFill=0;html=1;verticalAlign=bottom;labelBackgroundColor=none;strokeWidth=1;startSize=8;endSize=8;fontFamily=Helvetica;fontSize=12;fontColor=#000000;edgeStyle=orthogonalEdgeStyle;entryX=0.5;entryY=0;entryDx=0;entryDy=0;strokeColor=#000000;exitX=1;exitY=0.5;exitDx=0;exitDy=0;" parent="1" source="260" target="128" edge="1">
                    <mxGeometry width="160" relative="1" as="geometry">
                        <mxPoint x="-80" y="-1110" as="sourcePoint"/>
                        <mxPoint x="90" y="-930" as="targetPoint"/>
                    </mxGeometry>
                </mxCell>
                <mxCell id="273" value="" style="endArrow=none;startArrow=diamondThin;endFill=0;startFill=1;html=1;verticalAlign=bottom;labelBackgroundColor=none;strokeWidth=1;startSize=8;endSize=8;fontFamily=Helvetica;fontSize=12;fontColor=#000000;edgeStyle=orthogonalEdgeStyle;strokeColor=#000000;entryX=0.5;entryY=0;entryDx=0;entryDy=0;exitX=0;exitY=0.5;exitDx=0;exitDy=0;" parent="1" source="135" target="140" edge="1">
                    <mxGeometry width="160" relative="1" as="geometry">
                        <mxPoint x="-590" y="-870" as="sourcePoint"/>
                        <mxPoint x="-320" y="-670" as="targetPoint"/>
                    </mxGeometry>
                </mxCell>
                <mxCell id="277" value="" style="html=1;verticalAlign=bottom;labelBackgroundColor=none;endArrow=open;endFill=0;dashed=1;fontFamily=Helvetica;fontSize=12;fontColor=#000000;startSize=26;strokeColor=#000000;entryX=0;entryY=0;entryDx=0;entryDy=0;edgeStyle=orthogonalEdgeStyle;exitX=0.5;exitY=0;exitDx=0;exitDy=0;" parent="1" source="132" target="224" edge="1">
                    <mxGeometry width="160" relative="1" as="geometry">
                        <mxPoint x="-120" y="-550" as="sourcePoint"/>
                        <mxPoint x="-220" y="-550" as="targetPoint"/>
                        <Array as="points">
                            <mxPoint x="-310" y="-970"/>
                            <mxPoint x="-130" y="-970"/>
                            <mxPoint x="-130" y="-240"/>
                        </Array>
                    </mxGeometry>
                </mxCell>
                <mxCell id="278" value="" style="html=1;verticalAlign=bottom;labelBackgroundColor=none;endArrow=open;endFill=0;dashed=1;fontFamily=Helvetica;fontSize=12;fontColor=#000000;startSize=26;strokeColor=#000000;edgeStyle=orthogonalEdgeStyle;exitX=0.5;exitY=0;exitDx=0;exitDy=0;entryX=0;entryY=0.5;entryDx=0;entryDy=0;" parent="1" source="220" target="225" edge="1">
                    <mxGeometry width="160" relative="1" as="geometry">
                        <mxPoint x="-380" y="-380" as="sourcePoint"/>
                        <mxPoint x="-20" y="-190" as="targetPoint"/>
                        <Array as="points">
                            <mxPoint x="-570" y="-380"/>
                            <mxPoint x="-490" y="-380"/>
                            <mxPoint x="-490" y="-270"/>
                            <mxPoint x="-140" y="-270"/>
                            <mxPoint x="-140" y="-230"/>
                            <mxPoint x="-10" y="-230"/>
                            <mxPoint x="-10" y="-201"/>
                        </Array>
                    </mxGeometry>
                </mxCell>
                <mxCell id="279" value="" style="html=1;verticalAlign=bottom;labelBackgroundColor=none;endArrow=open;endFill=0;dashed=1;fontFamily=Helvetica;fontSize=12;fontColor=#000000;startSize=26;strokeColor=#000000;edgeStyle=orthogonalEdgeStyle;exitX=0.5;exitY=0;exitDx=0;exitDy=0;entryX=0;entryY=0.5;entryDx=0;entryDy=0;" parent="1" source="140" target="221" edge="1">
                    <mxGeometry width="160" relative="1" as="geometry">
                        <mxPoint x="-380" y="-590" as="sourcePoint"/>
                        <mxPoint x="-220" y="-590" as="targetPoint"/>
                        <Array as="points">
                            <mxPoint x="-590" y="-762"/>
                            <mxPoint x="-490" y="-762"/>
                            <mxPoint x="-490" y="-400"/>
                            <mxPoint x="-660" y="-400"/>
                            <mxPoint x="-660" y="-331"/>
                        </Array>
                    </mxGeometry>
                </mxCell>
                <mxCell id="280" value="EventPlayerVirtual" style="swimlane;fontStyle=0;childLayout=stackLayout;horizontal=1;startSize=26;fillColor=none;horizontalStack=0;resizeParent=1;resizeParentMax=0;resizeLast=0;collapsible=1;marginBottom=0;fontSize=12;fontColor=#000000;strokeColor=#000000;" parent="1" vertex="1">
                    <mxGeometry x="-560" y="-150" width="220" height="130" as="geometry"/>
                </mxCell>
                <mxCell id="714" value="? player: Player*" style="text;strokeColor=#000000;fillColor=none;align=left;verticalAlign=top;spacingLeft=4;spacingRight=4;overflow=hidden;rotatable=0;points=[[0,0.5],[1,0.5]];portConstraint=eastwest;fontSize=12;fontColor=#000000;" vertex="1" parent="280">
                    <mxGeometry y="26" width="220" height="26" as="geometry"/>
                </mxCell>
                <mxCell id="281" value="+ virtual trigger(Player*): GameStatus" style="text;strokeColor=#000000;fillColor=none;align=left;verticalAlign=top;spacingLeft=4;spacingRight=4;overflow=hidden;rotatable=0;points=[[0,0.5],[1,0.5]];portConstraint=eastwest;fontSize=12;fontColor=#000000;" parent="280" vertex="1">
                    <mxGeometry y="52" width="220" height="26" as="geometry"/>
                </mxCell>
                <mxCell id="716" value="+ set_player(PLayer*)" style="text;strokeColor=#000000;fillColor=none;align=left;verticalAlign=top;spacingLeft=4;spacingRight=4;overflow=hidden;rotatable=0;points=[[0,0.5],[1,0.5]];portConstraint=eastwest;fontSize=12;fontColor=#000000;" vertex="1" parent="280">
                    <mxGeometry y="78" width="220" height="26" as="geometry"/>
                </mxCell>
                <mxCell id="715" value="+ get_player(): Player*" style="text;strokeColor=#000000;fillColor=none;align=left;verticalAlign=top;spacingLeft=4;spacingRight=4;overflow=hidden;rotatable=0;points=[[0,0.5],[1,0.5]];portConstraint=eastwest;fontSize=12;fontColor=#000000;" vertex="1" parent="280">
                    <mxGeometry y="104" width="220" height="26" as="geometry"/>
                </mxCell>
                <mxCell id="282" value="EventFieldVirtual" style="swimlane;fontStyle=0;childLayout=stackLayout;horizontal=1;startSize=26;fillColor=none;horizontalStack=0;resizeParent=1;resizeParentMax=0;resizeLast=0;collapsible=1;marginBottom=0;fontSize=12;fontColor=#000000;strokeColor=#000000;" parent="1" vertex="1">
                    <mxGeometry x="-795" y="-90" width="210" height="130" as="geometry"/>
                </mxCell>
                <mxCell id="711" value="? field: Field *" style="text;strokeColor=#000000;fillColor=none;align=left;verticalAlign=top;spacingLeft=4;spacingRight=4;overflow=hidden;rotatable=0;points=[[0,0.5],[1,0.5]];portConstraint=eastwest;fontSize=12;fontColor=#000000;" vertex="1" parent="282">
                    <mxGeometry y="26" width="210" height="26" as="geometry"/>
                </mxCell>
                <mxCell id="283" value="+ virtual trigger(): GameStatus" style="text;strokeColor=#000000;fillColor=none;align=left;verticalAlign=top;spacingLeft=4;spacingRight=4;overflow=hidden;rotatable=0;points=[[0,0.5],[1,0.5]];portConstraint=eastwest;fontSize=12;fontColor=#000000;" parent="282" vertex="1">
                    <mxGeometry y="52" width="210" height="26" as="geometry"/>
                </mxCell>
                <mxCell id="713" value="+ set_field(Field*)" style="text;strokeColor=#000000;fillColor=none;align=left;verticalAlign=top;spacingLeft=4;spacingRight=4;overflow=hidden;rotatable=0;points=[[0,0.5],[1,0.5]];portConstraint=eastwest;fontSize=12;fontColor=#000000;" vertex="1" parent="282">
                    <mxGeometry y="78" width="210" height="26" as="geometry"/>
                </mxCell>
                <mxCell id="712" value="+get_field(): Field*" style="text;strokeColor=#000000;fillColor=none;align=left;verticalAlign=top;spacingLeft=4;spacingRight=4;overflow=hidden;rotatable=0;points=[[0,0.5],[1,0.5]];portConstraint=eastwest;fontSize=12;fontColor=#000000;" vertex="1" parent="282">
                    <mxGeometry y="104" width="210" height="26" as="geometry"/>
                </mxCell>
                <mxCell id="284" value="" style="endArrow=block;startArrow=none;endFill=0;startFill=0;endSize=8;html=1;verticalAlign=bottom;dashed=1;labelBackgroundColor=none;fontFamily=Helvetica;fontSize=12;fontColor=#000000;strokeColor=#000000;edgeStyle=orthogonalEdgeStyle;exitX=0.5;exitY=0;exitDx=0;exitDy=0;entryX=0;entryY=0.5;entryDx=0;entryDy=0;" parent="1" source="280" target="144" edge="1">
                    <mxGeometry width="160" relative="1" as="geometry">
                        <mxPoint x="-870" y="-220" as="sourcePoint"/>
                        <mxPoint x="-840" y="-190" as="targetPoint"/>
                        <Array as="points">
                            <mxPoint x="-450" y="-160"/>
                            <mxPoint x="-570" y="-160"/>
                            <mxPoint x="-570" y="-100"/>
                            <mxPoint x="-820" y="-100"/>
                            <mxPoint x="-820" y="-134"/>
                        </Array>
                    </mxGeometry>
                </mxCell>
                <mxCell id="285" value="" style="endArrow=block;startArrow=none;endFill=0;startFill=0;endSize=8;html=1;verticalAlign=bottom;dashed=1;labelBackgroundColor=none;fontFamily=Helvetica;fontSize=12;fontColor=#000000;strokeColor=#000000;exitX=0.5;exitY=0;exitDx=0;exitDy=0;entryX=0;entryY=0.5;entryDx=0;entryDy=0;edgeStyle=orthogonalEdgeStyle;" parent="1" source="282" target="144" edge="1">
                    <mxGeometry width="160" relative="1" as="geometry">
                        <mxPoint x="-620" y="-130" as="sourcePoint"/>
                        <mxPoint x="-510" as="targetPoint"/>
                        <Array as="points">
                            <mxPoint x="-695" y="-90"/>
                            <mxPoint x="-695" y="-100"/>
                            <mxPoint x="-820" y="-100"/>
                            <mxPoint x="-820" y="-134"/>
                        </Array>
                    </mxGeometry>
                </mxCell>
                <mxCell id="341" value="EventBonus" style="swimlane;fontStyle=0;childLayout=stackLayout;horizontal=1;startSize=26;fillColor=none;horizontalStack=0;resizeParent=1;resizeParentMax=0;resizeLast=0;collapsible=1;marginBottom=0;fontSize=12;fontColor=#000000;strokeColor=#000000;" parent="1" vertex="1">
                    <mxGeometry x="390" y="390" width="310" height="728" as="geometry">
                        <mxRectangle x="-960" y="450" width="100" height="26" as="alternateBounds"/>
                    </mxGeometry>
                </mxCell>
                <mxCell id="343" value="- hit_point_bonus: int" style="text;strokeColor=#000000;fillColor=none;align=left;verticalAlign=top;spacingLeft=4;spacingRight=4;overflow=hidden;rotatable=0;points=[[0,0.5],[1,0.5]];portConstraint=eastwest;fontSize=12;fontColor=#000000;" parent="341" vertex="1">
                    <mxGeometry y="26" width="310" height="26" as="geometry"/>
                </mxCell>
                <mxCell id="344" value="- strenght_bonus: int" style="text;strokeColor=#000000;fillColor=none;align=left;verticalAlign=top;spacingLeft=4;spacingRight=4;overflow=hidden;rotatable=0;points=[[0,0.5],[1,0.5]];portConstraint=eastwest;fontSize=12;fontColor=#000000;" parent="341" vertex="1">
                    <mxGeometry y="52" width="310" height="26" as="geometry"/>
                </mxCell>
                <mxCell id="345" value="- endurance_bonus: int" style="text;strokeColor=#000000;fillColor=none;align=left;verticalAlign=top;spacingLeft=4;spacingRight=4;overflow=hidden;rotatable=0;points=[[0,0.5],[1,0.5]];portConstraint=eastwest;fontSize=12;fontColor=#000000;" parent="341" vertex="1">
                    <mxGeometry y="78" width="310" height="26" as="geometry"/>
                </mxCell>
                <mxCell id="346" value="- dexterity_bonus: int" style="text;strokeColor=#000000;fillColor=none;align=left;verticalAlign=top;spacingLeft=4;spacingRight=4;overflow=hidden;rotatable=0;points=[[0,0.5],[1,0.5]];portConstraint=eastwest;fontSize=12;fontColor=#000000;" parent="341" vertex="1">
                    <mxGeometry y="104" width="310" height="26" as="geometry"/>
                </mxCell>
                <mxCell id="347" value="- armor_bonus: int" style="text;strokeColor=#000000;fillColor=none;align=left;verticalAlign=top;spacingLeft=4;spacingRight=4;overflow=hidden;rotatable=0;points=[[0,0.5],[1,0.5]];portConstraint=eastwest;fontSize=12;fontColor=#000000;" parent="341" vertex="1">
                    <mxGeometry y="130" width="310" height="26" as="geometry"/>
                </mxCell>
                <mxCell id="369" value="- coins_bonus: long int" style="text;strokeColor=#000000;fillColor=none;align=left;verticalAlign=top;spacingLeft=4;spacingRight=4;overflow=hidden;rotatable=0;points=[[0,0.5],[1,0.5]];portConstraint=eastwest;fontSize=12;fontColor=#000000;" parent="341" vertex="1">
                    <mxGeometry y="156" width="310" height="26" as="geometry"/>
                </mxCell>
                <mxCell id="348" value="+ EventBonus(Player *)" style="text;strokeColor=#000000;fillColor=none;align=left;verticalAlign=top;spacingLeft=4;spacingRight=4;overflow=hidden;rotatable=0;points=[[0,0.5],[1,0.5]];portConstraint=eastwest;fontSize=12;fontColor=#000000;" parent="341" vertex="1">
                    <mxGeometry y="182" width="310" height="26" as="geometry"/>
                </mxCell>
                <mxCell id="349" value="+ EventBonus(Player *, int, int, int, int, int, long int)" style="text;strokeColor=#000000;fillColor=none;align=left;verticalAlign=top;spacingLeft=4;spacingRight=4;overflow=hidden;rotatable=0;points=[[0,0.5],[1,0.5]];portConstraint=eastwest;fontSize=12;fontColor=#000000;" parent="341" vertex="1">
                    <mxGeometry y="208" width="310" height="26" as="geometry"/>
                </mxCell>
                <mxCell id="351" value="+ EventBonus(const EventBonus&amp;)" style="text;strokeColor=#000000;fillColor=none;align=left;verticalAlign=top;spacingLeft=4;spacingRight=4;overflow=hidden;rotatable=0;points=[[0,0.5],[1,0.5]];portConstraint=eastwest;fontSize=12;fontColor=#000000;" parent="341" vertex="1">
                    <mxGeometry y="234" width="310" height="26" as="geometry"/>
                </mxCell>
                <mxCell id="352" value="+ EventBonus(EventBonus&amp;&amp;)" style="text;strokeColor=#000000;fillColor=none;align=left;verticalAlign=top;spacingLeft=4;spacingRight=4;overflow=hidden;rotatable=0;points=[[0,0.5],[1,0.5]];portConstraint=eastwest;fontSize=12;fontColor=#000000;" parent="341" vertex="1">
                    <mxGeometry y="260" width="310" height="26" as="geometry"/>
                </mxCell>
                <mxCell id="353" value="+ operator=(const EventBonus&amp;): EventBonus&amp;" style="text;strokeColor=#000000;fillColor=none;align=left;verticalAlign=top;spacingLeft=4;spacingRight=4;overflow=hidden;rotatable=0;points=[[0,0.5],[1,0.5]];portConstraint=eastwest;fontSize=12;fontColor=#000000;" parent="341" vertex="1">
                    <mxGeometry y="286" width="310" height="26" as="geometry"/>
                </mxCell>
                <mxCell id="354" value="+ operator=(EventBonus&amp;&amp;): EventBonus&amp;" style="text;strokeColor=#000000;fillColor=none;align=left;verticalAlign=top;spacingLeft=4;spacingRight=4;overflow=hidden;rotatable=0;points=[[0,0.5],[1,0.5]];portConstraint=eastwest;fontSize=12;fontColor=#000000;" parent="341" vertex="1">
                    <mxGeometry y="312" width="310" height="26" as="geometry"/>
                </mxCell>
                <mxCell id="355" value="+ trigger(): GameStatus" style="text;strokeColor=#000000;fillColor=none;align=left;verticalAlign=top;spacingLeft=4;spacingRight=4;overflow=hidden;rotatable=0;points=[[0,0.5],[1,0.5]];portConstraint=eastwest;fontSize=12;fontColor=#000000;" parent="341" vertex="1">
                    <mxGeometry y="338" width="310" height="26" as="geometry"/>
                </mxCell>
                <mxCell id="357" value="+ set_bonus(int, int, int, int, int, long int)" style="text;strokeColor=#000000;fillColor=none;align=left;verticalAlign=top;spacingLeft=4;spacingRight=4;overflow=hidden;rotatable=0;points=[[0,0.5],[1,0.5]];portConstraint=eastwest;fontSize=12;fontColor=#000000;" parent="341" vertex="1">
                    <mxGeometry y="364" width="310" height="26" as="geometry"/>
                </mxCell>
                <mxCell id="358" value="+ set_hit_point_bonus(int)" style="text;strokeColor=#000000;fillColor=none;align=left;verticalAlign=top;spacingLeft=4;spacingRight=4;overflow=hidden;rotatable=0;points=[[0,0.5],[1,0.5]];portConstraint=eastwest;fontSize=12;fontColor=#000000;" parent="341" vertex="1">
                    <mxGeometry y="390" width="310" height="26" as="geometry"/>
                </mxCell>
                <mxCell id="359" value="+ set_strength_bonus(int)" style="text;strokeColor=#000000;fillColor=none;align=left;verticalAlign=top;spacingLeft=4;spacingRight=4;overflow=hidden;rotatable=0;points=[[0,0.5],[1,0.5]];portConstraint=eastwest;fontSize=12;fontColor=#000000;" parent="341" vertex="1">
                    <mxGeometry y="416" width="310" height="26" as="geometry"/>
                </mxCell>
                <mxCell id="360" value="+ set_endurance_bonus(int)" style="text;strokeColor=#000000;fillColor=none;align=left;verticalAlign=top;spacingLeft=4;spacingRight=4;overflow=hidden;rotatable=0;points=[[0,0.5],[1,0.5]];portConstraint=eastwest;fontSize=12;fontColor=#000000;" parent="341" vertex="1">
                    <mxGeometry y="442" width="310" height="26" as="geometry"/>
                </mxCell>
                <mxCell id="361" value="+ set_dexterity_bonus(int)" style="text;strokeColor=#000000;fillColor=none;align=left;verticalAlign=top;spacingLeft=4;spacingRight=4;overflow=hidden;rotatable=0;points=[[0,0.5],[1,0.5]];portConstraint=eastwest;fontSize=12;fontColor=#000000;" parent="341" vertex="1">
                    <mxGeometry y="468" width="310" height="26" as="geometry"/>
                </mxCell>
                <mxCell id="362" value="+ set_armor_bonus(int)" style="text;strokeColor=#000000;fillColor=none;align=left;verticalAlign=top;spacingLeft=4;spacingRight=4;overflow=hidden;rotatable=0;points=[[0,0.5],[1,0.5]];portConstraint=eastwest;fontSize=12;fontColor=#000000;" parent="341" vertex="1">
                    <mxGeometry y="494" width="310" height="26" as="geometry"/>
                </mxCell>
                <mxCell id="370" value="+ set_coins_bonus(long int)" style="text;strokeColor=#000000;fillColor=none;align=left;verticalAlign=top;spacingLeft=4;spacingRight=4;overflow=hidden;rotatable=0;points=[[0,0.5],[1,0.5]];portConstraint=eastwest;fontSize=12;fontColor=#000000;" parent="341" vertex="1">
                    <mxGeometry y="520" width="310" height="26" as="geometry"/>
                </mxCell>
                <mxCell id="363" value="+ get_price(): unsigned int" style="text;strokeColor=#000000;fillColor=none;align=left;verticalAlign=top;spacingLeft=4;spacingRight=4;overflow=hidden;rotatable=0;points=[[0,0.5],[1,0.5]];portConstraint=eastwest;fontSize=12;fontColor=#000000;" parent="341" vertex="1">
                    <mxGeometry y="546" width="310" height="26" as="geometry"/>
                </mxCell>
                <mxCell id="364" value="+ get_hit_point_bonus(): int" style="text;strokeColor=#000000;fillColor=none;align=left;verticalAlign=top;spacingLeft=4;spacingRight=4;overflow=hidden;rotatable=0;points=[[0,0.5],[1,0.5]];portConstraint=eastwest;fontSize=12;fontColor=#000000;" parent="341" vertex="1">
                    <mxGeometry y="572" width="310" height="26" as="geometry"/>
                </mxCell>
                <mxCell id="365" value="+ get_strength_bonus(): int" style="text;strokeColor=#000000;fillColor=none;align=left;verticalAlign=top;spacingLeft=4;spacingRight=4;overflow=hidden;rotatable=0;points=[[0,0.5],[1,0.5]];portConstraint=eastwest;fontSize=12;fontColor=#000000;" parent="341" vertex="1">
                    <mxGeometry y="598" width="310" height="26" as="geometry"/>
                </mxCell>
                <mxCell id="366" value="+ get_endurance_bonus(): int" style="text;strokeColor=#000000;fillColor=none;align=left;verticalAlign=top;spacingLeft=4;spacingRight=4;overflow=hidden;rotatable=0;points=[[0,0.5],[1,0.5]];portConstraint=eastwest;fontSize=12;fontColor=#000000;" parent="341" vertex="1">
                    <mxGeometry y="624" width="310" height="26" as="geometry"/>
                </mxCell>
                <mxCell id="367" value="+ get_dexterity_bonus(): int" style="text;strokeColor=#000000;fillColor=none;align=left;verticalAlign=top;spacingLeft=4;spacingRight=4;overflow=hidden;rotatable=0;points=[[0,0.5],[1,0.5]];portConstraint=eastwest;fontSize=12;fontColor=#000000;" parent="341" vertex="1">
                    <mxGeometry y="650" width="310" height="26" as="geometry"/>
                </mxCell>
                <mxCell id="368" value="+ get_armor_bonus(): int" style="text;strokeColor=#000000;fillColor=none;align=left;verticalAlign=top;spacingLeft=4;spacingRight=4;overflow=hidden;rotatable=0;points=[[0,0.5],[1,0.5]];portConstraint=eastwest;fontSize=12;fontColor=#000000;" parent="341" vertex="1">
                    <mxGeometry y="676" width="310" height="26" as="geometry"/>
                </mxCell>
                <mxCell id="371" value="+ get_coins_bonus(): long int" style="text;strokeColor=#000000;fillColor=none;align=left;verticalAlign=top;spacingLeft=4;spacingRight=4;overflow=hidden;rotatable=0;points=[[0,0.5],[1,0.5]];portConstraint=eastwest;fontSize=12;fontColor=#000000;" parent="341" vertex="1">
                    <mxGeometry y="702" width="310" height="26" as="geometry"/>
                </mxCell>
                <mxCell id="372" value="EventChangePassble" style="swimlane;fontStyle=0;childLayout=stackLayout;horizontal=1;startSize=26;fillColor=none;horizontalStack=0;resizeParent=1;resizeParentMax=0;resizeLast=0;collapsible=1;marginBottom=0;fontSize=12;fontColor=#000000;strokeColor=#000000;" parent="1" vertex="1">
                    <mxGeometry x="-460" width="410" height="520" as="geometry"/>
                </mxCell>
                <mxCell id="373" value="? coord: std::pair &lt;long, long&gt;" style="text;strokeColor=#000000;fillColor=none;align=left;verticalAlign=top;spacingLeft=4;spacingRight=4;overflow=hidden;rotatable=0;points=[[0,0.5],[1,0.5]];portConstraint=eastwest;fontSize=12;fontColor=#000000;" parent="372" vertex="1">
                    <mxGeometry y="26" width="410" height="26" as="geometry"/>
                </mxCell>
                <mxCell id="389" value="? radius: unsigned int" style="text;strokeColor=#000000;fillColor=none;align=left;verticalAlign=top;spacingLeft=4;spacingRight=4;overflow=hidden;rotatable=0;points=[[0,0.5],[1,0.5]];portConstraint=eastwest;fontSize=12;fontColor=#000000;" parent="372" vertex="1">
                    <mxGeometry y="52" width="410" height="26" as="geometry"/>
                </mxCell>
                <mxCell id="388" value="? set_is_passable(std::pair &lt;long, long&gt;, std::pair &lt;long, long&gt;, bool)" style="text;strokeColor=#000000;fillColor=none;align=left;verticalAlign=top;spacingLeft=4;spacingRight=4;overflow=hidden;rotatable=0;points=[[0,0.5],[1,0.5]];portConstraint=eastwest;fontSize=12;fontColor=#000000;" parent="372" vertex="1">
                    <mxGeometry y="78" width="410" height="26" as="geometry"/>
                </mxCell>
                <mxCell id="383" value="+ EventChangePassble()" style="text;strokeColor=#000000;fillColor=none;align=left;verticalAlign=top;spacingLeft=4;spacingRight=4;overflow=hidden;rotatable=0;points=[[0,0.5],[1,0.5]];portConstraint=eastwest;fontSize=12;fontColor=#000000;" parent="372" vertex="1">
                    <mxGeometry y="104" width="410" height="26" as="geometry"/>
                </mxCell>
                <mxCell id="710" value="+ EventChangePassble(Field *)" style="text;strokeColor=#000000;fillColor=none;align=left;verticalAlign=top;spacingLeft=4;spacingRight=4;overflow=hidden;rotatable=0;points=[[0,0.5],[1,0.5]];portConstraint=eastwest;fontSize=12;fontColor=#000000;" vertex="1" parent="372">
                    <mxGeometry y="130" width="410" height="26" as="geometry"/>
                </mxCell>
                <mxCell id="387" value="+ EventChangePassble(Field *, std::pair &lt;long, long&gt;, unsigned int)" style="text;strokeColor=#000000;fillColor=none;align=left;verticalAlign=top;spacingLeft=4;spacingRight=4;overflow=hidden;rotatable=0;points=[[0,0.5],[1,0.5]];portConstraint=eastwest;fontSize=12;fontColor=#000000;" parent="372" vertex="1">
                    <mxGeometry y="156" width="410" height="26" as="geometry"/>
                </mxCell>
                <mxCell id="386" value="+ EventChangePassble(Field *, long, long, unsigned int)" style="text;strokeColor=#000000;fillColor=none;align=left;verticalAlign=top;spacingLeft=4;spacingRight=4;overflow=hidden;rotatable=0;points=[[0,0.5],[1,0.5]];portConstraint=eastwest;fontSize=12;fontColor=#000000;" parent="372" vertex="1">
                    <mxGeometry y="182" width="410" height="26" as="geometry"/>
                </mxCell>
                <mxCell id="384" value="+ EventChangePassble(Field *, std::pair &lt;long, long&gt;)" style="text;strokeColor=#000000;fillColor=none;align=left;verticalAlign=top;spacingLeft=4;spacingRight=4;overflow=hidden;rotatable=0;points=[[0,0.5],[1,0.5]];portConstraint=eastwest;fontSize=12;fontColor=#000000;" parent="372" vertex="1">
                    <mxGeometry y="208" width="410" height="26" as="geometry"/>
                </mxCell>
                <mxCell id="385" value="+ EventChangePassble(Field *, long, long)" style="text;strokeColor=#000000;fillColor=none;align=left;verticalAlign=top;spacingLeft=4;spacingRight=4;overflow=hidden;rotatable=0;points=[[0,0.5],[1,0.5]];portConstraint=eastwest;fontSize=12;fontColor=#000000;" parent="372" vertex="1">
                    <mxGeometry y="234" width="410" height="26" as="geometry"/>
                </mxCell>
                <mxCell id="382" value="+ EventChangePassble(const EventChangePassble&amp;)" style="text;strokeColor=#000000;fillColor=none;align=left;verticalAlign=top;spacingLeft=4;spacingRight=4;overflow=hidden;rotatable=0;points=[[0,0.5],[1,0.5]];portConstraint=eastwest;fontSize=12;fontColor=#000000;" parent="372" vertex="1">
                    <mxGeometry y="260" width="410" height="26" as="geometry"/>
                </mxCell>
                <mxCell id="381" value="+ EventChangePassble(EventChangePassble&amp;&amp;)" style="text;strokeColor=#000000;fillColor=none;align=left;verticalAlign=top;spacingLeft=4;spacingRight=4;overflow=hidden;rotatable=0;points=[[0,0.5],[1,0.5]];portConstraint=eastwest;fontSize=12;fontColor=#000000;" parent="372" vertex="1">
                    <mxGeometry y="286" width="410" height="26" as="geometry"/>
                </mxCell>
                <mxCell id="380" value="+ operator=(const EventChangePassble&amp;): EventChangePassble&amp;" style="text;strokeColor=#000000;fillColor=none;align=left;verticalAlign=top;spacingLeft=4;spacingRight=4;overflow=hidden;rotatable=0;points=[[0,0.5],[1,0.5]];portConstraint=eastwest;fontSize=12;fontColor=#000000;" parent="372" vertex="1">
                    <mxGeometry y="312" width="410" height="26" as="geometry"/>
                </mxCell>
                <mxCell id="379" value="+ operator=(EventChangePassble&amp;&amp;): EventChangePassble&amp;" style="text;strokeColor=#000000;fillColor=none;align=left;verticalAlign=top;spacingLeft=4;spacingRight=4;overflow=hidden;rotatable=0;points=[[0,0.5],[1,0.5]];portConstraint=eastwest;fontSize=12;fontColor=#000000;" parent="372" vertex="1">
                    <mxGeometry y="338" width="410" height="26" as="geometry"/>
                </mxCell>
                <mxCell id="378" value="+ virtual trigger(): GameStatus" style="text;strokeColor=#000000;fillColor=none;align=left;verticalAlign=top;spacingLeft=4;spacingRight=4;overflow=hidden;rotatable=0;points=[[0,0.5],[1,0.5]];portConstraint=eastwest;fontSize=12;fontColor=#000000;" parent="372" vertex="1">
                    <mxGeometry y="364" width="410" height="26" as="geometry"/>
                </mxCell>
                <mxCell id="376" value="+ set_coord(std::pair &lt;long int, long int&gt;" style="text;strokeColor=#000000;fillColor=none;align=left;verticalAlign=top;spacingLeft=4;spacingRight=4;overflow=hidden;rotatable=0;points=[[0,0.5],[1,0.5]];portConstraint=eastwest;fontSize=12;fontColor=#000000;" parent="372" vertex="1">
                    <mxGeometry y="390" width="410" height="26" as="geometry"/>
                </mxCell>
                <mxCell id="375" value="+ set_coord(long int, long int)" style="text;strokeColor=#000000;fillColor=none;align=left;verticalAlign=top;spacingLeft=4;spacingRight=4;overflow=hidden;rotatable=0;points=[[0,0.5],[1,0.5]];portConstraint=eastwest;fontSize=12;fontColor=#000000;" parent="372" vertex="1">
                    <mxGeometry y="416" width="410" height="26" as="geometry"/>
                </mxCell>
                <mxCell id="374" value="+ set_radius(unsigned int)" style="text;strokeColor=#000000;fillColor=none;align=left;verticalAlign=top;spacingLeft=4;spacingRight=4;overflow=hidden;rotatable=0;points=[[0,0.5],[1,0.5]];portConstraint=eastwest;fontSize=12;fontColor=#000000;" parent="372" vertex="1">
                    <mxGeometry y="442" width="410" height="26" as="geometry"/>
                </mxCell>
                <mxCell id="391" value="+ get_coord(): std:pair &lt;long int, long int&gt;" style="text;strokeColor=#000000;fillColor=none;align=left;verticalAlign=top;spacingLeft=4;spacingRight=4;overflow=hidden;rotatable=0;points=[[0,0.5],[1,0.5]];portConstraint=eastwest;fontSize=12;fontColor=#000000;" parent="372" vertex="1">
                    <mxGeometry y="468" width="410" height="26" as="geometry"/>
                </mxCell>
                <mxCell id="390" value="+ get_radius(): unsigned int" style="text;strokeColor=#000000;fillColor=none;align=left;verticalAlign=top;spacingLeft=4;spacingRight=4;overflow=hidden;rotatable=0;points=[[0,0.5],[1,0.5]];portConstraint=eastwest;fontSize=12;fontColor=#000000;" parent="372" vertex="1">
                    <mxGeometry y="494" width="410" height="26" as="geometry"/>
                </mxCell>
                <mxCell id="432" value="EventCombat" style="swimlane;fontStyle=0;childLayout=stackLayout;horizontal=1;startSize=26;fillColor=none;horizontalStack=0;resizeParent=1;resizeParentMax=0;resizeLast=0;collapsible=1;marginBottom=0;fontSize=12;fontColor=#000000;strokeColor=#000000;" parent="1" vertex="1">
                    <mxGeometry y="102" width="360" height="1092" as="geometry">
                        <mxRectangle x="250" y="-147" width="110" height="26" as="alternateBounds"/>
                    </mxGeometry>
                </mxCell>
                <mxCell id="433" value="? base_hit: int" style="text;strokeColor=#000000;fillColor=none;align=left;verticalAlign=top;spacingLeft=4;spacingRight=4;overflow=hidden;rotatable=0;points=[[0,0.5],[1,0.5]];portConstraint=eastwest;fontSize=12;fontColor=#000000;" parent="432" vertex="1">
                    <mxGeometry y="26" width="360" height="26" as="geometry"/>
                </mxCell>
                <mxCell id="434" value="? line_strangth: int" style="text;strokeColor=#000000;fillColor=none;align=left;verticalAlign=top;spacingLeft=4;spacingRight=4;overflow=hidden;rotatable=0;points=[[0,0.5],[1,0.5]];portConstraint=eastwest;fontSize=12;fontColor=#000000;" parent="432" vertex="1">
                    <mxGeometry y="52" width="360" height="26" as="geometry"/>
                </mxCell>
                <mxCell id="435" value="? line_endurance: int" style="text;strokeColor=#000000;fillColor=none;align=left;verticalAlign=top;spacingLeft=4;spacingRight=4;overflow=hidden;rotatable=0;points=[[0,0.5],[1,0.5]];portConstraint=eastwest;fontSize=12;fontColor=#000000;" parent="432" vertex="1">
                    <mxGeometry y="78" width="360" height="26" as="geometry"/>
                </mxCell>
                <mxCell id="436" value="? line_dexterity: int" style="text;strokeColor=#000000;fillColor=none;align=left;verticalAlign=top;spacingLeft=4;spacingRight=4;overflow=hidden;rotatable=0;points=[[0,0.5],[1,0.5]];portConstraint=eastwest;fontSize=12;fontColor=#000000;" parent="432" vertex="1">
                    <mxGeometry y="104" width="360" height="26" as="geometry"/>
                </mxCell>
                <mxCell id="437" value="? line_armor: int" style="text;strokeColor=#000000;fillColor=none;align=left;verticalAlign=top;spacingLeft=4;spacingRight=4;overflow=hidden;rotatable=0;points=[[0,0.5],[1,0.5]];portConstraint=eastwest;fontSize=12;fontColor=#000000;" parent="432" vertex="1">
                    <mxGeometry y="130" width="360" height="26" as="geometry"/>
                </mxCell>
                <mxCell id="438" value="? strengyh_damage_modifire: float" style="text;strokeColor=#000000;fillColor=none;align=left;verticalAlign=top;spacingLeft=4;spacingRight=4;overflow=hidden;rotatable=0;points=[[0,0.5],[1,0.5]];portConstraint=eastwest;fontSize=12;fontColor=#000000;" parent="432" vertex="1">
                    <mxGeometry y="156" width="360" height="26" as="geometry"/>
                </mxCell>
                <mxCell id="439" value="? endurance_damage_modifire: float" style="text;strokeColor=#000000;fillColor=none;align=left;verticalAlign=top;spacingLeft=4;spacingRight=4;overflow=hidden;rotatable=0;points=[[0,0.5],[1,0.5]];portConstraint=eastwest;fontSize=12;fontColor=#000000;" parent="432" vertex="1">
                    <mxGeometry y="182" width="360" height="26" as="geometry"/>
                </mxCell>
                <mxCell id="440" value="? deterity_damage_modifire: float" style="text;strokeColor=#000000;fillColor=none;align=left;verticalAlign=top;spacingLeft=4;spacingRight=4;overflow=hidden;rotatable=0;points=[[0,0.5],[1,0.5]];portConstraint=eastwest;fontSize=12;fontColor=#000000;" parent="432" vertex="1">
                    <mxGeometry y="208" width="360" height="26" as="geometry"/>
                </mxCell>
                <mxCell id="441" value="? armor_damage_modifire: float" style="text;strokeColor=#000000;fillColor=none;align=left;verticalAlign=top;spacingLeft=4;spacingRight=4;overflow=hidden;rotatable=0;points=[[0,0.5],[1,0.5]];portConstraint=eastwest;fontSize=12;fontColor=#000000;" parent="432" vertex="1">
                    <mxGeometry y="234" width="360" height="26" as="geometry"/>
                </mxCell>
                <mxCell id="442" value="- check_max_base_hit()" style="text;strokeColor=#000000;fillColor=none;align=left;verticalAlign=top;spacingLeft=4;spacingRight=4;overflow=hidden;rotatable=0;points=[[0,0.5],[1,0.5]];portConstraint=eastwest;fontSize=12;fontColor=#000000;" parent="432" vertex="1">
                    <mxGeometry y="260" width="360" height="26" as="geometry"/>
                </mxCell>
                <mxCell id="443" value="? check_max_strength_damage_modifire()" style="text;strokeColor=#000000;fillColor=none;align=left;verticalAlign=top;spacingLeft=4;spacingRight=4;overflow=hidden;rotatable=0;points=[[0,0.5],[1,0.5]];portConstraint=eastwest;fontSize=12;fontColor=#000000;" parent="432" vertex="1">
                    <mxGeometry y="286" width="360" height="26" as="geometry"/>
                </mxCell>
                <mxCell id="444" value="? check_max_endurance_damage_modifire()" style="text;strokeColor=#000000;fillColor=none;align=left;verticalAlign=top;spacingLeft=4;spacingRight=4;overflow=hidden;rotatable=0;points=[[0,0.5],[1,0.5]];portConstraint=eastwest;fontSize=12;fontColor=#000000;" parent="432" vertex="1">
                    <mxGeometry y="312" width="360" height="26" as="geometry"/>
                </mxCell>
                <mxCell id="445" value="? check_max_dexterity_damage_modifire()" style="text;strokeColor=#000000;fillColor=none;align=left;verticalAlign=top;spacingLeft=4;spacingRight=4;overflow=hidden;rotatable=0;points=[[0,0.5],[1,0.5]];portConstraint=eastwest;fontSize=12;fontColor=#000000;" parent="432" vertex="1">
                    <mxGeometry y="338" width="360" height="26" as="geometry"/>
                </mxCell>
                <mxCell id="446" value="? check_max_armor_damage_modifire()" style="text;strokeColor=#000000;fillColor=none;align=left;verticalAlign=top;spacingLeft=4;spacingRight=4;overflow=hidden;rotatable=0;points=[[0,0.5],[1,0.5]];portConstraint=eastwest;fontSize=12;fontColor=#000000;" parent="432" vertex="1">
                    <mxGeometry y="364" width="360" height="26" as="geometry"/>
                </mxCell>
                <mxCell id="447" value="? check_max_all()" style="text;strokeColor=#000000;fillColor=none;align=left;verticalAlign=top;spacingLeft=4;spacingRight=4;overflow=hidden;rotatable=0;points=[[0,0.5],[1,0.5]];portConstraint=eastwest;fontSize=12;fontColor=#000000;" parent="432" vertex="1">
                    <mxGeometry y="390" width="360" height="26" as="geometry"/>
                </mxCell>
                <mxCell id="448" value="+ EventCombat(Player *)" style="text;strokeColor=#000000;fillColor=none;align=left;verticalAlign=top;spacingLeft=4;spacingRight=4;overflow=hidden;rotatable=0;points=[[0,0.5],[1,0.5]];portConstraint=eastwest;fontSize=12;fontColor=#000000;" parent="432" vertex="1">
                    <mxGeometry y="416" width="360" height="26" as="geometry"/>
                </mxCell>
                <mxCell id="449" value="+ EventCombat(Player *, int, int, int, int, int, float, float, float, float)" style="text;strokeColor=#000000;fillColor=none;align=left;verticalAlign=top;spacingLeft=4;spacingRight=4;overflow=hidden;rotatable=0;points=[[0,0.5],[1,0.5]];portConstraint=eastwest;fontSize=12;fontColor=#000000;" parent="432" vertex="1">
                    <mxGeometry y="442" width="360" height="26" as="geometry"/>
                </mxCell>
                <mxCell id="450" value="+ EventCombat(Player *, int, int, int, int, int)" style="text;strokeColor=#000000;fillColor=none;align=left;verticalAlign=top;spacingLeft=4;spacingRight=4;overflow=hidden;rotatable=0;points=[[0,0.5],[1,0.5]];portConstraint=eastwest;fontSize=12;fontColor=#000000;" parent="432" vertex="1">
                    <mxGeometry y="468" width="360" height="26" as="geometry"/>
                </mxCell>
                <mxCell id="451" value="+ EventCombat(const EventCombat&amp;)" style="text;strokeColor=#000000;fillColor=none;align=left;verticalAlign=top;spacingLeft=4;spacingRight=4;overflow=hidden;rotatable=0;points=[[0,0.5],[1,0.5]];portConstraint=eastwest;fontSize=12;fontColor=#000000;" parent="432" vertex="1">
                    <mxGeometry y="494" width="360" height="26" as="geometry"/>
                </mxCell>
                <mxCell id="452" value="+ EventCombat(EventCombat&amp;&amp;)" style="text;strokeColor=#000000;fillColor=none;align=left;verticalAlign=top;spacingLeft=4;spacingRight=4;overflow=hidden;rotatable=0;points=[[0,0.5],[1,0.5]];portConstraint=eastwest;fontSize=12;fontColor=#000000;" parent="432" vertex="1">
                    <mxGeometry y="520" width="360" height="26" as="geometry"/>
                </mxCell>
                <mxCell id="453" value="+ operator=(const EventCombat&amp;): EventCombat&amp;" style="text;strokeColor=#000000;fillColor=none;align=left;verticalAlign=top;spacingLeft=4;spacingRight=4;overflow=hidden;rotatable=0;points=[[0,0.5],[1,0.5]];portConstraint=eastwest;fontSize=12;fontColor=#000000;" parent="432" vertex="1">
                    <mxGeometry y="546" width="360" height="26" as="geometry"/>
                </mxCell>
                <mxCell id="454" value="+ operator=(EventCombat&amp;&amp;): EventCombat&amp;" style="text;strokeColor=#000000;fillColor=none;align=left;verticalAlign=top;spacingLeft=4;spacingRight=4;overflow=hidden;rotatable=0;points=[[0,0.5],[1,0.5]];portConstraint=eastwest;fontSize=12;fontColor=#000000;" parent="432" vertex="1">
                    <mxGeometry y="572" width="360" height="26" as="geometry"/>
                </mxCell>
                <mxCell id="455" value="+ virtual trigger(): GameStatus" style="text;strokeColor=#000000;fillColor=none;align=left;verticalAlign=top;spacingLeft=4;spacingRight=4;overflow=hidden;rotatable=0;points=[[0,0.5],[1,0.5]];portConstraint=eastwest;fontSize=12;fontColor=#000000;" parent="432" vertex="1">
                    <mxGeometry y="598" width="360" height="26" as="geometry"/>
                </mxCell>
                <mxCell id="456" value="+ set_line(int, int, int, int, int)" style="text;strokeColor=#000000;fillColor=none;align=left;verticalAlign=top;spacingLeft=4;spacingRight=4;overflow=hidden;rotatable=0;points=[[0,0.5],[1,0.5]];portConstraint=eastwest;fontSize=12;fontColor=#000000;" parent="432" vertex="1">
                    <mxGeometry y="624" width="360" height="26" as="geometry"/>
                </mxCell>
                <mxCell id="458" value="+ set_line_strangth(int)" style="text;strokeColor=#000000;fillColor=none;align=left;verticalAlign=top;spacingLeft=4;spacingRight=4;overflow=hidden;rotatable=0;points=[[0,0.5],[1,0.5]];portConstraint=eastwest;fontSize=12;fontColor=#000000;" parent="432" vertex="1">
                    <mxGeometry y="650" width="360" height="26" as="geometry"/>
                </mxCell>
                <mxCell id="459" value="+ set_line_endurance(int)" style="text;strokeColor=#000000;fillColor=none;align=left;verticalAlign=top;spacingLeft=4;spacingRight=4;overflow=hidden;rotatable=0;points=[[0,0.5],[1,0.5]];portConstraint=eastwest;fontSize=12;fontColor=#000000;" parent="432" vertex="1">
                    <mxGeometry y="676" width="360" height="26" as="geometry"/>
                </mxCell>
                <mxCell id="460" value="+ set_line_dexterity(int)" style="text;strokeColor=#000000;fillColor=none;align=left;verticalAlign=top;spacingLeft=4;spacingRight=4;overflow=hidden;rotatable=0;points=[[0,0.5],[1,0.5]];portConstraint=eastwest;fontSize=12;fontColor=#000000;" parent="432" vertex="1">
                    <mxGeometry y="702" width="360" height="26" as="geometry"/>
                </mxCell>
                <mxCell id="461" value="+ set_line_armor(int)" style="text;strokeColor=#000000;fillColor=none;align=left;verticalAlign=top;spacingLeft=4;spacingRight=4;overflow=hidden;rotatable=0;points=[[0,0.5],[1,0.5]];portConstraint=eastwest;fontSize=12;fontColor=#000000;" parent="432" vertex="1">
                    <mxGeometry y="728" width="360" height="26" as="geometry"/>
                </mxCell>
                <mxCell id="457" value="+ set_damage_modifire(float, float, float, float)" style="text;strokeColor=#000000;fillColor=none;align=left;verticalAlign=top;spacingLeft=4;spacingRight=4;overflow=hidden;rotatable=0;points=[[0,0.5],[1,0.5]];portConstraint=eastwest;fontSize=12;fontColor=#000000;" parent="432" vertex="1">
                    <mxGeometry y="754" width="360" height="26" as="geometry"/>
                </mxCell>
                <mxCell id="462" value="+ set_strength_damage_modifire(float)" style="text;strokeColor=#000000;fillColor=none;align=left;verticalAlign=top;spacingLeft=4;spacingRight=4;overflow=hidden;rotatable=0;points=[[0,0.5],[1,0.5]];portConstraint=eastwest;fontSize=12;fontColor=#000000;" parent="432" vertex="1">
                    <mxGeometry y="780" width="360" height="26" as="geometry"/>
                </mxCell>
                <mxCell id="463" value="+ set_endurance_damage_modifire(float)" style="text;strokeColor=#000000;fillColor=none;align=left;verticalAlign=top;spacingLeft=4;spacingRight=4;overflow=hidden;rotatable=0;points=[[0,0.5],[1,0.5]];portConstraint=eastwest;fontSize=12;fontColor=#000000;" parent="432" vertex="1">
                    <mxGeometry y="806" width="360" height="26" as="geometry"/>
                </mxCell>
                <mxCell id="464" value="+ set_dexterity_damage_modifire(float)" style="text;strokeColor=#000000;fillColor=none;align=left;verticalAlign=top;spacingLeft=4;spacingRight=4;overflow=hidden;rotatable=0;points=[[0,0.5],[1,0.5]];portConstraint=eastwest;fontSize=12;fontColor=#000000;" parent="432" vertex="1">
                    <mxGeometry y="832" width="360" height="26" as="geometry"/>
                </mxCell>
                <mxCell id="465" value="+ set_armor_damage_modifire(float)" style="text;strokeColor=#000000;fillColor=none;align=left;verticalAlign=top;spacingLeft=4;spacingRight=4;overflow=hidden;rotatable=0;points=[[0,0.5],[1,0.5]];portConstraint=eastwest;fontSize=12;fontColor=#000000;" parent="432" vertex="1">
                    <mxGeometry y="858" width="360" height="26" as="geometry"/>
                </mxCell>
                <mxCell id="466" value="+ get_line_strength(): int" style="text;strokeColor=#000000;fillColor=none;align=left;verticalAlign=top;spacingLeft=4;spacingRight=4;overflow=hidden;rotatable=0;points=[[0,0.5],[1,0.5]];portConstraint=eastwest;fontSize=12;fontColor=#000000;" parent="432" vertex="1">
                    <mxGeometry y="884" width="360" height="26" as="geometry"/>
                </mxCell>
                <mxCell id="467" value="+ get_line_endurance(): int" style="text;strokeColor=#000000;fillColor=none;align=left;verticalAlign=top;spacingLeft=4;spacingRight=4;overflow=hidden;rotatable=0;points=[[0,0.5],[1,0.5]];portConstraint=eastwest;fontSize=12;fontColor=#000000;" parent="432" vertex="1">
                    <mxGeometry y="910" width="360" height="26" as="geometry"/>
                </mxCell>
                <mxCell id="468" value="+ get_line_dexterity(): int" style="text;strokeColor=#000000;fillColor=none;align=left;verticalAlign=top;spacingLeft=4;spacingRight=4;overflow=hidden;rotatable=0;points=[[0,0.5],[1,0.5]];portConstraint=eastwest;fontSize=12;fontColor=#000000;" parent="432" vertex="1">
                    <mxGeometry y="936" width="360" height="26" as="geometry"/>
                </mxCell>
                <mxCell id="469" value="+ get_line_armor(): int" style="text;strokeColor=#000000;fillColor=none;align=left;verticalAlign=top;spacingLeft=4;spacingRight=4;overflow=hidden;rotatable=0;points=[[0,0.5],[1,0.5]];portConstraint=eastwest;fontSize=12;fontColor=#000000;" parent="432" vertex="1">
                    <mxGeometry y="962" width="360" height="26" as="geometry"/>
                </mxCell>
                <mxCell id="470" value="+ get_strength_damage_modifire(): float" style="text;strokeColor=#000000;fillColor=none;align=left;verticalAlign=top;spacingLeft=4;spacingRight=4;overflow=hidden;rotatable=0;points=[[0,0.5],[1,0.5]];portConstraint=eastwest;fontSize=12;fontColor=#000000;" parent="432" vertex="1">
                    <mxGeometry y="988" width="360" height="26" as="geometry"/>
                </mxCell>
                <mxCell id="471" value="+ get_endurance_damage_modifire(): float" style="text;strokeColor=#000000;fillColor=none;align=left;verticalAlign=top;spacingLeft=4;spacingRight=4;overflow=hidden;rotatable=0;points=[[0,0.5],[1,0.5]];portConstraint=eastwest;fontSize=12;fontColor=#000000;" parent="432" vertex="1">
                    <mxGeometry y="1014" width="360" height="26" as="geometry"/>
                </mxCell>
                <mxCell id="472" value="+ get_dexterity_damage_modifire(): float" style="text;strokeColor=#000000;fillColor=none;align=left;verticalAlign=top;spacingLeft=4;spacingRight=4;overflow=hidden;rotatable=0;points=[[0,0.5],[1,0.5]];portConstraint=eastwest;fontSize=12;fontColor=#000000;" parent="432" vertex="1">
                    <mxGeometry y="1040" width="360" height="26" as="geometry"/>
                </mxCell>
                <mxCell id="473" value="+ get_armor_damage_modifire(): float" style="text;strokeColor=#000000;fillColor=none;align=left;verticalAlign=top;spacingLeft=4;spacingRight=4;overflow=hidden;rotatable=0;points=[[0,0.5],[1,0.5]];portConstraint=eastwest;fontSize=12;fontColor=#000000;" parent="432" vertex="1">
                    <mxGeometry y="1066" width="360" height="26" as="geometry"/>
                </mxCell>
                <mxCell id="474" value="EventMakePassable" style="swimlane;fontStyle=0;childLayout=stackLayout;horizontal=1;startSize=26;fillColor=none;horizontalStack=0;resizeParent=1;resizeParentMax=0;resizeLast=0;collapsible=1;marginBottom=0;fontSize=12;fontColor=#000000;strokeColor=#000000;" parent="1" vertex="1">
                    <mxGeometry x="-800" y="310" width="330" height="234" as="geometry"/>
                </mxCell>
                <mxCell id="475" value="- is_player_coord: bool" style="text;strokeColor=#000000;fillColor=none;align=left;verticalAlign=top;spacingLeft=4;spacingRight=4;overflow=hidden;rotatable=0;points=[[0,0.5],[1,0.5]];portConstraint=eastwest;fontSize=12;fontColor=#000000;" parent="474" vertex="1">
                    <mxGeometry y="26" width="330" height="26" as="geometry"/>
                </mxCell>
                <mxCell id="676" value="+ EventMakePassable(const EventMakePassable&amp;)" style="text;strokeColor=#000000;fillColor=none;align=left;verticalAlign=top;spacingLeft=4;spacingRight=4;overflow=hidden;rotatable=0;points=[[0,0.5],[1,0.5]];portConstraint=eastwest;fontSize=12;fontColor=#000000;" parent="474" vertex="1">
                    <mxGeometry y="52" width="330" height="26" as="geometry"/>
                </mxCell>
                <mxCell id="677" value="+ EventMakePassable(EventMakePassable&amp;&amp;)" style="text;strokeColor=#000000;fillColor=none;align=left;verticalAlign=top;spacingLeft=4;spacingRight=4;overflow=hidden;rotatable=0;points=[[0,0.5],[1,0.5]];portConstraint=eastwest;fontSize=12;fontColor=#000000;" parent="474" vertex="1">
                    <mxGeometry y="78" width="330" height="26" as="geometry"/>
                </mxCell>
                <mxCell id="679" value="+ operator=(EventMakePassable&amp;&amp;): EventMakePassable&amp;" style="text;strokeColor=#000000;fillColor=none;align=left;verticalAlign=top;spacingLeft=4;spacingRight=4;overflow=hidden;rotatable=0;points=[[0,0.5],[1,0.5]];portConstraint=eastwest;fontSize=12;fontColor=#000000;" parent="474" vertex="1">
                    <mxGeometry y="104" width="330" height="26" as="geometry"/>
                </mxCell>
                <mxCell id="678" value="+ operator=(const EventMakePassable&amp;): EventMakePassable&amp;" style="text;strokeColor=#000000;fillColor=none;align=left;verticalAlign=top;spacingLeft=4;spacingRight=4;overflow=hidden;rotatable=0;points=[[0,0.5],[1,0.5]];portConstraint=eastwest;fontSize=12;fontColor=#000000;" parent="474" vertex="1">
                    <mxGeometry y="130" width="330" height="26" as="geometry"/>
                </mxCell>
                <mxCell id="672" value="+ trigger(): GameStatus" style="text;strokeColor=#000000;fillColor=none;align=left;verticalAlign=top;spacingLeft=4;spacingRight=4;overflow=hidden;rotatable=0;points=[[0,0.5],[1,0.5]];portConstraint=eastwest;fontSize=12;fontColor=#000000;" parent="474" vertex="1">
                    <mxGeometry y="156" width="330" height="26" as="geometry"/>
                </mxCell>
                <mxCell id="673" value="+ set_is_player_coord(bool)" style="text;strokeColor=#000000;fillColor=none;align=left;verticalAlign=top;spacingLeft=4;spacingRight=4;overflow=hidden;rotatable=0;points=[[0,0.5],[1,0.5]];portConstraint=eastwest;fontSize=12;fontColor=#000000;" parent="474" vertex="1">
                    <mxGeometry y="182" width="330" height="26" as="geometry"/>
                </mxCell>
                <mxCell id="674" value="+ get_is_player_coord(): bool" style="text;strokeColor=#000000;fillColor=none;align=left;verticalAlign=top;spacingLeft=4;spacingRight=4;overflow=hidden;rotatable=0;points=[[0,0.5],[1,0.5]];portConstraint=eastwest;fontSize=12;fontColor=#000000;" parent="474" vertex="1">
                    <mxGeometry y="208" width="330" height="26" as="geometry"/>
                </mxCell>
                <mxCell id="516" value="EventCombatHard" style="swimlane;fontStyle=0;childLayout=stackLayout;horizontal=1;startSize=26;fillColor=none;horizontalStack=0;resizeParent=1;resizeParentMax=0;resizeLast=0;collapsible=1;marginBottom=0;fontSize=12;fontColor=#000000;strokeColor=#000000;" parent="1" vertex="1">
                    <mxGeometry x="390" y="1150" width="220" height="52" as="geometry">
                        <mxRectangle x="390" y="390" width="130" height="26" as="alternateBounds"/>
                    </mxGeometry>
                </mxCell>
                <mxCell id="517" value="+ virtual trigger(): GameStatus" style="text;strokeColor=#000000;fillColor=none;align=left;verticalAlign=top;spacingLeft=4;spacingRight=4;overflow=hidden;rotatable=0;points=[[0,0.5],[1,0.5]];portConstraint=eastwest;fontSize=12;fontColor=#000000;" parent="516" vertex="1">
                    <mxGeometry y="26" width="220" height="26" as="geometry"/>
                </mxCell>
                <mxCell id="518" value="EventCombatMedium" style="swimlane;fontStyle=0;childLayout=stackLayout;horizontal=1;startSize=26;fillColor=none;horizontalStack=0;resizeParent=1;resizeParentMax=0;resizeLast=0;collapsible=1;marginBottom=0;fontSize=12;fontColor=#000000;strokeColor=#000000;" parent="1" vertex="1">
                    <mxGeometry x="390" y="1238" width="220" height="52" as="geometry"/>
                </mxCell>
                <mxCell id="519" value="+ virtual trigger(): GameStatus" style="text;strokeColor=#000000;fillColor=none;align=left;verticalAlign=top;spacingLeft=4;spacingRight=4;overflow=hidden;rotatable=0;points=[[0,0.5],[1,0.5]];portConstraint=eastwest;fontSize=12;fontColor=#000000;" parent="518" vertex="1">
                    <mxGeometry y="26" width="220" height="26" as="geometry"/>
                </mxCell>
                <mxCell id="520" value="EventCombatEasy" style="swimlane;fontStyle=0;childLayout=stackLayout;horizontal=1;startSize=26;fillColor=none;horizontalStack=0;resizeParent=1;resizeParentMax=0;resizeLast=0;collapsible=1;marginBottom=0;fontSize=12;fontColor=#000000;strokeColor=#000000;" parent="1" vertex="1">
                    <mxGeometry x="390" y="1328" width="220" height="52" as="geometry"/>
                </mxCell>
                <mxCell id="521" value="+ virtual trigger(): GameStatus" style="text;strokeColor=#000000;fillColor=none;align=left;verticalAlign=top;spacingLeft=4;spacingRight=4;overflow=hidden;rotatable=0;points=[[0,0.5],[1,0.5]];portConstraint=eastwest;fontSize=12;fontColor=#000000;" parent="520" vertex="1">
                    <mxGeometry y="26" width="220" height="26" as="geometry"/>
                </mxCell>
                <mxCell id="522" value="EventCasing" style="swimlane;fontStyle=0;childLayout=stackLayout;horizontal=1;startSize=26;fillColor=none;horizontalStack=0;resizeParent=1;resizeParentMax=0;resizeLast=0;collapsible=1;marginBottom=0;fontSize=12;fontColor=#000000;strokeColor=#000000;" parent="1" vertex="1">
                    <mxGeometry x="-800" y="570" width="290" height="520" as="geometry"/>
                </mxCell>
                <mxCell id="523" value="- event: CellEvent*" style="text;strokeColor=#000000;fillColor=none;align=left;verticalAlign=top;spacingLeft=4;spacingRight=4;overflow=hidden;rotatable=0;points=[[0,0.5],[1,0.5]];portConstraint=eastwest;fontSize=12;fontColor=#000000;" parent="522" vertex="1">
                    <mxGeometry y="26" width="290" height="26" as="geometry"/>
                </mxCell>
                <mxCell id="524" value="- name: std::string" style="text;strokeColor=#000000;fillColor=none;align=left;verticalAlign=top;spacingLeft=4;spacingRight=4;overflow=hidden;rotatable=0;points=[[0,0.5],[1,0.5]];portConstraint=eastwest;fontSize=12;fontColor=#000000;" parent="522" vertex="1">
                    <mxGeometry y="52" width="290" height="26" as="geometry"/>
                </mxCell>
                <mxCell id="525" value="- chance: float" style="text;strokeColor=#000000;fillColor=none;align=left;verticalAlign=top;spacingLeft=4;spacingRight=4;overflow=hidden;rotatable=0;points=[[0,0.5],[1,0.5]];portConstraint=eastwest;fontSize=12;fontColor=#000000;" parent="522" vertex="1">
                    <mxGeometry y="78" width="290" height="26" as="geometry"/>
                </mxCell>
                <mxCell id="526" value="+ EventCasing(std::string, CellEvent*, float)" style="text;strokeColor=#000000;fillColor=none;align=left;verticalAlign=top;spacingLeft=4;spacingRight=4;overflow=hidden;rotatable=0;points=[[0,0.5],[1,0.5]];portConstraint=eastwest;fontSize=12;fontColor=#000000;" parent="522" vertex="1">
                    <mxGeometry y="104" width="290" height="26" as="geometry"/>
                </mxCell>
                <mxCell id="527" value="+ EventCasing(std::string, CellEvent*)" style="text;strokeColor=#000000;fillColor=none;align=left;verticalAlign=top;spacingLeft=4;spacingRight=4;overflow=hidden;rotatable=0;points=[[0,0.5],[1,0.5]];portConstraint=eastwest;fontSize=12;fontColor=#000000;" parent="522" vertex="1">
                    <mxGeometry y="130" width="290" height="26" as="geometry"/>
                </mxCell>
                <mxCell id="528" value="+ EventCasing(CellEvent*, float)" style="text;strokeColor=#000000;fillColor=none;align=left;verticalAlign=top;spacingLeft=4;spacingRight=4;overflow=hidden;rotatable=0;points=[[0,0.5],[1,0.5]];portConstraint=eastwest;fontSize=12;fontColor=#000000;" parent="522" vertex="1">
                    <mxGeometry y="156" width="290" height="26" as="geometry"/>
                </mxCell>
                <mxCell id="529" value="+ EventCasing(CellEvent*)" style="text;strokeColor=#000000;fillColor=none;align=left;verticalAlign=top;spacingLeft=4;spacingRight=4;overflow=hidden;rotatable=0;points=[[0,0.5],[1,0.5]];portConstraint=eastwest;fontSize=12;fontColor=#000000;" parent="522" vertex="1">
                    <mxGeometry y="182" width="290" height="26" as="geometry"/>
                </mxCell>
                <mxCell id="530" value="+ EventCasing(const EventCasing&amp;)" style="text;strokeColor=#000000;fillColor=none;align=left;verticalAlign=top;spacingLeft=4;spacingRight=4;overflow=hidden;rotatable=0;points=[[0,0.5],[1,0.5]];portConstraint=eastwest;fontSize=12;fontColor=#000000;" parent="522" vertex="1">
                    <mxGeometry y="208" width="290" height="26" as="geometry"/>
                </mxCell>
                <mxCell id="531" value="+ EventCasing(EventCasing&amp;&amp;)" style="text;strokeColor=#000000;fillColor=none;align=left;verticalAlign=top;spacingLeft=4;spacingRight=4;overflow=hidden;rotatable=0;points=[[0,0.5],[1,0.5]];portConstraint=eastwest;fontSize=12;fontColor=#000000;" parent="522" vertex="1">
                    <mxGeometry y="234" width="290" height="26" as="geometry"/>
                </mxCell>
                <mxCell id="532" value="+ operator=(const EventCasing&amp;): EventCasing&amp;" style="text;strokeColor=#000000;fillColor=none;align=left;verticalAlign=top;spacingLeft=4;spacingRight=4;overflow=hidden;rotatable=0;points=[[0,0.5],[1,0.5]];portConstraint=eastwest;fontSize=12;fontColor=#000000;" parent="522" vertex="1">
                    <mxGeometry y="260" width="290" height="26" as="geometry"/>
                </mxCell>
                <mxCell id="533" value="+ operator=(EventCasing&amp;&amp;): EventCasing&amp;" style="text;strokeColor=#000000;fillColor=none;align=left;verticalAlign=top;spacingLeft=4;spacingRight=4;overflow=hidden;rotatable=0;points=[[0,0.5],[1,0.5]];portConstraint=eastwest;fontSize=12;fontColor=#000000;" parent="522" vertex="1">
                    <mxGeometry y="286" width="290" height="26" as="geometry"/>
                </mxCell>
                <mxCell id="534" value="+ operator=(CellEvent&amp;): EventCasing&amp;" style="text;strokeColor=#000000;fillColor=none;align=left;verticalAlign=top;spacingLeft=4;spacingRight=4;overflow=hidden;rotatable=0;points=[[0,0.5],[1,0.5]];portConstraint=eastwest;fontSize=12;fontColor=#000000;" parent="522" vertex="1">
                    <mxGeometry y="312" width="290" height="26" as="geometry"/>
                </mxCell>
                <mxCell id="535" value="+ trigger(): GameStatus" style="text;strokeColor=#000000;fillColor=none;align=left;verticalAlign=top;spacingLeft=4;spacingRight=4;overflow=hidden;rotatable=0;points=[[0,0.5],[1,0.5]];portConstraint=eastwest;fontSize=12;fontColor=#000000;" parent="522" vertex="1">
                    <mxGeometry y="338" width="290" height="26" as="geometry"/>
                </mxCell>
                <mxCell id="536" value="+ set_event(CellEvent*)" style="text;strokeColor=#000000;fillColor=none;align=left;verticalAlign=top;spacingLeft=4;spacingRight=4;overflow=hidden;rotatable=0;points=[[0,0.5],[1,0.5]];portConstraint=eastwest;fontSize=12;fontColor=#000000;" parent="522" vertex="1">
                    <mxGeometry y="364" width="290" height="26" as="geometry"/>
                </mxCell>
                <mxCell id="537" value="+ set_name(std::string)" style="text;strokeColor=#000000;fillColor=none;align=left;verticalAlign=top;spacingLeft=4;spacingRight=4;overflow=hidden;rotatable=0;points=[[0,0.5],[1,0.5]];portConstraint=eastwest;fontSize=12;fontColor=#000000;" parent="522" vertex="1">
                    <mxGeometry y="390" width="290" height="26" as="geometry"/>
                </mxCell>
                <mxCell id="538" value="+ set_chance(float)" style="text;strokeColor=#000000;fillColor=none;align=left;verticalAlign=top;spacingLeft=4;spacingRight=4;overflow=hidden;rotatable=0;points=[[0,0.5],[1,0.5]];portConstraint=eastwest;fontSize=12;fontColor=#000000;" parent="522" vertex="1">
                    <mxGeometry y="416" width="290" height="26" as="geometry"/>
                </mxCell>
                <mxCell id="539" value="+ get_name(): std::string" style="text;strokeColor=#000000;fillColor=none;align=left;verticalAlign=top;spacingLeft=4;spacingRight=4;overflow=hidden;rotatable=0;points=[[0,0.5],[1,0.5]];portConstraint=eastwest;fontSize=12;fontColor=#000000;" parent="522" vertex="1">
                    <mxGeometry y="442" width="290" height="26" as="geometry"/>
                </mxCell>
                <mxCell id="540" value="+ get_chance(): float" style="text;strokeColor=#000000;fillColor=none;align=left;verticalAlign=top;spacingLeft=4;spacingRight=4;overflow=hidden;rotatable=0;points=[[0,0.5],[1,0.5]];portConstraint=eastwest;fontSize=12;fontColor=#000000;" parent="522" vertex="1">
                    <mxGeometry y="468" width="290" height="26" as="geometry"/>
                </mxCell>
                <mxCell id="541" value="+ get_event(): CellEvent*" style="text;strokeColor=#000000;fillColor=none;align=left;verticalAlign=top;spacingLeft=4;spacingRight=4;overflow=hidden;rotatable=0;points=[[0,0.5],[1,0.5]];portConstraint=eastwest;fontSize=12;fontColor=#000000;" parent="522" vertex="1">
                    <mxGeometry y="494" width="290" height="26" as="geometry"/>
                </mxCell>
                <mxCell id="542" value="EventFinal" style="swimlane;fontStyle=0;childLayout=stackLayout;horizontal=1;startSize=26;fillColor=none;horizontalStack=0;resizeParent=1;resizeParentMax=0;resizeLast=0;collapsible=1;marginBottom=0;fontSize=12;fontColor=#000000;strokeColor=#000000;" parent="1" vertex="1">
                    <mxGeometry x="-465" y="1400" width="310" height="676" as="geometry">
                        <mxRectangle x="-1010" y="32" width="90" height="26" as="alternateBounds"/>
                    </mxGeometry>
                </mxCell>
                <mxCell id="584" value="- line_strangth: int" style="text;strokeColor=#000000;fillColor=none;align=left;verticalAlign=top;spacingLeft=4;spacingRight=4;overflow=hidden;rotatable=0;points=[[0,0.5],[1,0.5]];portConstraint=eastwest;fontSize=12;fontColor=#000000;" parent="542" vertex="1">
                    <mxGeometry y="26" width="310" height="26" as="geometry"/>
                </mxCell>
                <mxCell id="587" value="- line_armor: int" style="text;strokeColor=#000000;fillColor=none;align=left;verticalAlign=top;spacingLeft=4;spacingRight=4;overflow=hidden;rotatable=0;points=[[0,0.5],[1,0.5]];portConstraint=eastwest;fontSize=12;fontColor=#000000;" parent="542" vertex="1">
                    <mxGeometry y="52" width="310" height="26" as="geometry"/>
                </mxCell>
                <mxCell id="586" value="- line_dexterity: int" style="text;strokeColor=#000000;fillColor=none;align=left;verticalAlign=top;spacingLeft=4;spacingRight=4;overflow=hidden;rotatable=0;points=[[0,0.5],[1,0.5]];portConstraint=eastwest;fontSize=12;fontColor=#000000;" parent="542" vertex="1">
                    <mxGeometry y="78" width="310" height="26" as="geometry"/>
                </mxCell>
                <mxCell id="585" value="- line_endurance: int" style="text;strokeColor=#000000;fillColor=none;align=left;verticalAlign=top;spacingLeft=4;spacingRight=4;overflow=hidden;rotatable=0;points=[[0,0.5],[1,0.5]];portConstraint=eastwest;fontSize=12;fontColor=#000000;" parent="542" vertex="1">
                    <mxGeometry y="104" width="310" height="26" as="geometry"/>
                </mxCell>
                <mxCell id="544" value="- boss: EventCombatHard*" style="text;strokeColor=#000000;fillColor=none;align=left;verticalAlign=top;spacingLeft=4;spacingRight=4;overflow=hidden;rotatable=0;points=[[0,0.5],[1,0.5]];portConstraint=eastwest;fontSize=12;fontColor=#000000;" parent="542" vertex="1">
                    <mxGeometry y="130" width="310" height="26" as="geometry"/>
                </mxCell>
                <mxCell id="545" value="+ EventFinal(Player*, int, int, int, int, EventCombatHard*)" style="text;strokeColor=#000000;fillColor=none;align=left;verticalAlign=top;spacingLeft=4;spacingRight=4;overflow=hidden;rotatable=0;points=[[0,0.5],[1,0.5]];portConstraint=eastwest;fontSize=12;fontColor=#000000;" parent="542" vertex="1">
                    <mxGeometry y="156" width="310" height="26" as="geometry"/>
                </mxCell>
                <mxCell id="546" value="+ EventFinal(Player*, int, int, int, int)" style="text;strokeColor=#000000;fillColor=none;align=left;verticalAlign=top;spacingLeft=4;spacingRight=4;overflow=hidden;rotatable=0;points=[[0,0.5],[1,0.5]];portConstraint=eastwest;fontSize=12;fontColor=#000000;" parent="542" vertex="1">
                    <mxGeometry y="182" width="310" height="26" as="geometry"/>
                </mxCell>
                <mxCell id="547" value="+ EventFinal(Player*)" style="text;strokeColor=#000000;fillColor=none;align=left;verticalAlign=top;spacingLeft=4;spacingRight=4;overflow=hidden;rotatable=0;points=[[0,0.5],[1,0.5]];portConstraint=eastwest;fontSize=12;fontColor=#000000;" parent="542" vertex="1">
                    <mxGeometry y="208" width="310" height="26" as="geometry"/>
                </mxCell>
                <mxCell id="548" value="+ EventFinal(const EventFinal&amp;)" style="text;strokeColor=#000000;fillColor=none;align=left;verticalAlign=top;spacingLeft=4;spacingRight=4;overflow=hidden;rotatable=0;points=[[0,0.5],[1,0.5]];portConstraint=eastwest;fontSize=12;fontColor=#000000;" parent="542" vertex="1">
                    <mxGeometry y="234" width="310" height="26" as="geometry"/>
                </mxCell>
                <mxCell id="549" value="+ EventFinal(EventFinal&amp;&amp;)" style="text;strokeColor=#000000;fillColor=none;align=left;verticalAlign=top;spacingLeft=4;spacingRight=4;overflow=hidden;rotatable=0;points=[[0,0.5],[1,0.5]];portConstraint=eastwest;fontSize=12;fontColor=#000000;" parent="542" vertex="1">
                    <mxGeometry y="260" width="310" height="26" as="geometry"/>
                </mxCell>
                <mxCell id="589" value="+ operator=(const EventFinal&amp;): EventFinal&amp;" style="text;strokeColor=#000000;fillColor=none;align=left;verticalAlign=top;spacingLeft=4;spacingRight=4;overflow=hidden;rotatable=0;points=[[0,0.5],[1,0.5]];portConstraint=eastwest;fontSize=12;fontColor=#000000;" parent="542" vertex="1">
                    <mxGeometry y="286" width="310" height="26" as="geometry"/>
                </mxCell>
                <mxCell id="590" value="+ operator=(EventFinal&amp;&amp;): EventFinal&amp;" style="text;strokeColor=#000000;fillColor=none;align=left;verticalAlign=top;spacingLeft=4;spacingRight=4;overflow=hidden;rotatable=0;points=[[0,0.5],[1,0.5]];portConstraint=eastwest;fontSize=12;fontColor=#000000;" parent="542" vertex="1">
                    <mxGeometry y="312" width="310" height="26" as="geometry"/>
                </mxCell>
                <mxCell id="591" value="+ operator=(EventCombatHard&amp;): EventFinal&amp;" style="text;strokeColor=#000000;fillColor=none;align=left;verticalAlign=top;spacingLeft=4;spacingRight=4;overflow=hidden;rotatable=0;points=[[0,0.5],[1,0.5]];portConstraint=eastwest;fontSize=12;fontColor=#000000;" parent="542" vertex="1">
                    <mxGeometry y="338" width="310" height="26" as="geometry"/>
                </mxCell>
                <mxCell id="552" value="+ trigger(): GameStatus" style="text;strokeColor=#000000;fillColor=none;align=left;verticalAlign=top;spacingLeft=4;spacingRight=4;overflow=hidden;rotatable=0;points=[[0,0.5],[1,0.5]];portConstraint=eastwest;fontSize=12;fontColor=#000000;" parent="542" vertex="1">
                    <mxGeometry y="364" width="310" height="26" as="geometry"/>
                </mxCell>
                <mxCell id="592" value="+ set_line(int, int, int, int, int)" style="text;strokeColor=#000000;fillColor=none;align=left;verticalAlign=top;spacingLeft=4;spacingRight=4;overflow=hidden;rotatable=0;points=[[0,0.5],[1,0.5]];portConstraint=eastwest;fontSize=12;fontColor=#000000;" parent="542" vertex="1">
                    <mxGeometry y="390" width="310" height="26" as="geometry"/>
                </mxCell>
                <mxCell id="593" value="+ set_line_strangth(int)" style="text;strokeColor=#000000;fillColor=none;align=left;verticalAlign=top;spacingLeft=4;spacingRight=4;overflow=hidden;rotatable=0;points=[[0,0.5],[1,0.5]];portConstraint=eastwest;fontSize=12;fontColor=#000000;" parent="542" vertex="1">
                    <mxGeometry y="416" width="310" height="26" as="geometry"/>
                </mxCell>
                <mxCell id="594" value="+ set_line_endurance(int)" style="text;strokeColor=#000000;fillColor=none;align=left;verticalAlign=top;spacingLeft=4;spacingRight=4;overflow=hidden;rotatable=0;points=[[0,0.5],[1,0.5]];portConstraint=eastwest;fontSize=12;fontColor=#000000;" parent="542" vertex="1">
                    <mxGeometry y="442" width="310" height="26" as="geometry"/>
                </mxCell>
                <mxCell id="595" value="+ set_line_dexterity(int)" style="text;strokeColor=#000000;fillColor=none;align=left;verticalAlign=top;spacingLeft=4;spacingRight=4;overflow=hidden;rotatable=0;points=[[0,0.5],[1,0.5]];portConstraint=eastwest;fontSize=12;fontColor=#000000;" parent="542" vertex="1">
                    <mxGeometry y="468" width="310" height="26" as="geometry"/>
                </mxCell>
                <mxCell id="596" value="+ set_line_armor(int)" style="text;strokeColor=#000000;fillColor=none;align=left;verticalAlign=top;spacingLeft=4;spacingRight=4;overflow=hidden;rotatable=0;points=[[0,0.5],[1,0.5]];portConstraint=eastwest;fontSize=12;fontColor=#000000;" parent="542" vertex="1">
                    <mxGeometry y="494" width="310" height="26" as="geometry"/>
                </mxCell>
                <mxCell id="565" value="+ set_boss(EventCombatHard*)" style="text;strokeColor=#000000;fillColor=none;align=left;verticalAlign=top;spacingLeft=4;spacingRight=4;overflow=hidden;rotatable=0;points=[[0,0.5],[1,0.5]];portConstraint=eastwest;fontSize=12;fontColor=#000000;" parent="542" vertex="1">
                    <mxGeometry y="520" width="310" height="26" as="geometry"/>
                </mxCell>
                <mxCell id="597" value="+ get_line_strength(): int" style="text;strokeColor=#000000;fillColor=none;align=left;verticalAlign=top;spacingLeft=4;spacingRight=4;overflow=hidden;rotatable=0;points=[[0,0.5],[1,0.5]];portConstraint=eastwest;fontSize=12;fontColor=#000000;" parent="542" vertex="1">
                    <mxGeometry y="546" width="310" height="26" as="geometry"/>
                </mxCell>
                <mxCell id="600" value="+ get_line_armor(): int" style="text;strokeColor=#000000;fillColor=none;align=left;verticalAlign=top;spacingLeft=4;spacingRight=4;overflow=hidden;rotatable=0;points=[[0,0.5],[1,0.5]];portConstraint=eastwest;fontSize=12;fontColor=#000000;" parent="542" vertex="1">
                    <mxGeometry y="572" width="310" height="26" as="geometry"/>
                </mxCell>
                <mxCell id="599" value="+ get_line_dexterity(): int" style="text;strokeColor=#000000;fillColor=none;align=left;verticalAlign=top;spacingLeft=4;spacingRight=4;overflow=hidden;rotatable=0;points=[[0,0.5],[1,0.5]];portConstraint=eastwest;fontSize=12;fontColor=#000000;" parent="542" vertex="1">
                    <mxGeometry y="598" width="310" height="26" as="geometry"/>
                </mxCell>
                <mxCell id="598" value="+ get_line_endurance(): int" style="text;strokeColor=#000000;fillColor=none;align=left;verticalAlign=top;spacingLeft=4;spacingRight=4;overflow=hidden;rotatable=0;points=[[0,0.5],[1,0.5]];portConstraint=eastwest;fontSize=12;fontColor=#000000;" parent="542" vertex="1">
                    <mxGeometry y="624" width="310" height="26" as="geometry"/>
                </mxCell>
                <mxCell id="566" value="+ get_boss(): EventCombatHard*" style="text;strokeColor=#000000;fillColor=none;align=left;verticalAlign=top;spacingLeft=4;spacingRight=4;overflow=hidden;rotatable=0;points=[[0,0.5],[1,0.5]];portConstraint=eastwest;fontSize=12;fontColor=#000000;" parent="542" vertex="1">
                    <mxGeometry y="650" width="310" height="26" as="geometry"/>
                </mxCell>
                <mxCell id="602" value="EventFinalTradeOffer" style="swimlane;fontStyle=0;childLayout=stackLayout;horizontal=1;startSize=26;fillColor=none;horizontalStack=0;resizeParent=1;resizeParentMax=0;resizeLast=0;collapsible=1;marginBottom=0;fontSize=12;fontColor=#000000;strokeColor=#000000;" parent="1" vertex="1">
                    <mxGeometry x="-460" y="1020" width="370" height="286" as="geometry">
                        <mxRectangle x="210" y="-294" width="150" height="26" as="alternateBounds"/>
                    </mxGeometry>
                </mxCell>
                <mxCell id="603" value="- price: unsigned int" style="text;strokeColor=#000000;fillColor=none;align=left;verticalAlign=top;spacingLeft=4;spacingRight=4;overflow=hidden;rotatable=0;points=[[0,0.5],[1,0.5]];portConstraint=eastwest;fontSize=12;fontColor=#000000;" parent="602" vertex="1">
                    <mxGeometry y="26" width="370" height="26" as="geometry"/>
                </mxCell>
                <mxCell id="612" value="+ EventFinalTradeOffer(Player*)" style="text;strokeColor=#000000;fillColor=none;align=left;verticalAlign=top;spacingLeft=4;spacingRight=4;overflow=hidden;rotatable=0;points=[[0,0.5],[1,0.5]];portConstraint=eastwest;fontSize=12;fontColor=#000000;" parent="602" vertex="1">
                    <mxGeometry y="52" width="370" height="26" as="geometry"/>
                </mxCell>
                <mxCell id="604" value="+ EventFinalTradeOffer(Player*, unsigned int)" style="text;strokeColor=#000000;fillColor=none;align=left;verticalAlign=top;spacingLeft=4;spacingRight=4;overflow=hidden;rotatable=0;points=[[0,0.5],[1,0.5]];portConstraint=eastwest;fontSize=12;fontColor=#000000;" parent="602" vertex="1">
                    <mxGeometry y="78" width="370" height="26" as="geometry"/>
                </mxCell>
                <mxCell id="605" value="+ EventFinalTradeOffer(const EventFinalTradeOffer&amp;)" style="text;strokeColor=#000000;fillColor=none;align=left;verticalAlign=top;spacingLeft=4;spacingRight=4;overflow=hidden;rotatable=0;points=[[0,0.5],[1,0.5]];portConstraint=eastwest;fontSize=12;fontColor=#000000;" parent="602" vertex="1">
                    <mxGeometry y="104" width="370" height="26" as="geometry"/>
                </mxCell>
                <mxCell id="606" value="+ EventFinalTradeOffer(EventFinalTradeOffer&amp;&amp;)" style="text;strokeColor=#000000;fillColor=none;align=left;verticalAlign=top;spacingLeft=4;spacingRight=4;overflow=hidden;rotatable=0;points=[[0,0.5],[1,0.5]];portConstraint=eastwest;fontSize=12;fontColor=#000000;" parent="602" vertex="1">
                    <mxGeometry y="130" width="370" height="26" as="geometry"/>
                </mxCell>
                <mxCell id="607" value="+ operator=(const EventFinalTradeOffer&amp;): EventFinalTradeOffer&amp;" style="text;strokeColor=#000000;fillColor=none;align=left;verticalAlign=top;spacingLeft=4;spacingRight=4;overflow=hidden;rotatable=0;points=[[0,0.5],[1,0.5]];portConstraint=eastwest;fontSize=12;fontColor=#000000;" parent="602" vertex="1">
                    <mxGeometry y="156" width="370" height="26" as="geometry"/>
                </mxCell>
                <mxCell id="608" value="+ operator=(EventFinalTradeOffer&amp;&amp;): EventFinalTradeOffer&amp;" style="text;strokeColor=#000000;fillColor=none;align=left;verticalAlign=top;spacingLeft=4;spacingRight=4;overflow=hidden;rotatable=0;points=[[0,0.5],[1,0.5]];portConstraint=eastwest;fontSize=12;fontColor=#000000;" parent="602" vertex="1">
                    <mxGeometry y="182" width="370" height="26" as="geometry"/>
                </mxCell>
                <mxCell id="609" value="+ trigger(): GameStatus" style="text;strokeColor=#000000;fillColor=none;align=left;verticalAlign=top;spacingLeft=4;spacingRight=4;overflow=hidden;rotatable=0;points=[[0,0.5],[1,0.5]];portConstraint=eastwest;fontSize=12;fontColor=#000000;" parent="602" vertex="1">
                    <mxGeometry y="208" width="370" height="26" as="geometry"/>
                </mxCell>
                <mxCell id="610" value="+ set_price(unsigned int)" style="text;strokeColor=#000000;fillColor=none;align=left;verticalAlign=top;spacingLeft=4;spacingRight=4;overflow=hidden;rotatable=0;points=[[0,0.5],[1,0.5]];portConstraint=eastwest;fontSize=12;fontColor=#000000;" parent="602" vertex="1">
                    <mxGeometry y="234" width="370" height="26" as="geometry"/>
                </mxCell>
                <mxCell id="611" value="+ get_price(): unsigned int" style="text;strokeColor=#000000;fillColor=none;align=left;verticalAlign=top;spacingLeft=4;spacingRight=4;overflow=hidden;rotatable=0;points=[[0,0.5],[1,0.5]];portConstraint=eastwest;fontSize=12;fontColor=#000000;" parent="602" vertex="1">
                    <mxGeometry y="260" width="370" height="26" as="geometry"/>
                </mxCell>
                <mxCell id="613" value="EventGetCoins" style="swimlane;fontStyle=0;childLayout=stackLayout;horizontal=1;startSize=26;fillColor=none;horizontalStack=0;resizeParent=1;resizeParentMax=0;resizeLast=0;collapsible=1;marginBottom=0;fontSize=12;fontColor=#000000;strokeColor=#000000;" parent="1" vertex="1">
                    <mxGeometry x="-365" y="544" width="320" height="442" as="geometry"/>
                </mxCell>
                <mxCell id="614" value="- coins: long" style="text;strokeColor=#000000;fillColor=none;align=left;verticalAlign=top;spacingLeft=4;spacingRight=4;overflow=hidden;rotatable=0;points=[[0,0.5],[1,0.5]];portConstraint=eastwest;fontSize=12;fontColor=#000000;" parent="613" vertex="1">
                    <mxGeometry y="26" width="320" height="26" as="geometry"/>
                </mxCell>
                <mxCell id="615" value="- additional_event: EventCombat*" style="text;strokeColor=#000000;fillColor=none;align=left;verticalAlign=top;spacingLeft=4;spacingRight=4;overflow=hidden;rotatable=0;points=[[0,0.5],[1,0.5]];portConstraint=eastwest;fontSize=12;fontColor=#000000;" parent="613" vertex="1">
                    <mxGeometry y="52" width="320" height="26" as="geometry"/>
                </mxCell>
                <mxCell id="616" value="- check_max_coins()" style="text;strokeColor=#000000;fillColor=none;align=left;verticalAlign=top;spacingLeft=4;spacingRight=4;overflow=hidden;rotatable=0;points=[[0,0.5],[1,0.5]];portConstraint=eastwest;fontSize=12;fontColor=#000000;" parent="613" vertex="1">
                    <mxGeometry y="78" width="320" height="26" as="geometry"/>
                </mxCell>
                <mxCell id="617" value="+ EventGetCoins()" style="text;strokeColor=#000000;fillColor=none;align=left;verticalAlign=top;spacingLeft=4;spacingRight=4;overflow=hidden;rotatable=0;points=[[0,0.5],[1,0.5]];portConstraint=eastwest;fontSize=12;fontColor=#000000;" parent="613" vertex="1">
                    <mxGeometry y="104" width="320" height="26" as="geometry"/>
                </mxCell>
                <mxCell id="619" value="+ EventGetCoins(Player*, long, EventCombat*)" style="text;strokeColor=#000000;fillColor=none;align=left;verticalAlign=top;spacingLeft=4;spacingRight=4;overflow=hidden;rotatable=0;points=[[0,0.5],[1,0.5]];portConstraint=eastwest;fontSize=12;fontColor=#000000;" parent="613" vertex="1">
                    <mxGeometry y="130" width="320" height="26" as="geometry"/>
                </mxCell>
                <mxCell id="618" value="+ EventGetCoins(Player*, long)" style="text;strokeColor=#000000;fillColor=none;align=left;verticalAlign=top;spacingLeft=4;spacingRight=4;overflow=hidden;rotatable=0;points=[[0,0.5],[1,0.5]];portConstraint=eastwest;fontSize=12;fontColor=#000000;" parent="613" vertex="1">
                    <mxGeometry y="156" width="320" height="26" as="geometry"/>
                </mxCell>
                <mxCell id="655" value="+ EventGetCoins(const EventGetCoins&amp;)" style="text;strokeColor=#000000;fillColor=none;align=left;verticalAlign=top;spacingLeft=4;spacingRight=4;overflow=hidden;rotatable=0;points=[[0,0.5],[1,0.5]];portConstraint=eastwest;fontSize=12;fontColor=#000000;" parent="613" vertex="1">
                    <mxGeometry y="182" width="320" height="26" as="geometry"/>
                </mxCell>
                <mxCell id="656" value="+ EventGetCoins(EventGetCoins&amp;&amp;)" style="text;strokeColor=#000000;fillColor=none;align=left;verticalAlign=top;spacingLeft=4;spacingRight=4;overflow=hidden;rotatable=0;points=[[0,0.5],[1,0.5]];portConstraint=eastwest;fontSize=12;fontColor=#000000;" parent="613" vertex="1">
                    <mxGeometry y="208" width="320" height="26" as="geometry"/>
                </mxCell>
                <mxCell id="657" value="+ operator=(const EventGetCoins&amp;): EventGetCoins&amp;" style="text;strokeColor=#000000;fillColor=none;align=left;verticalAlign=top;spacingLeft=4;spacingRight=4;overflow=hidden;rotatable=0;points=[[0,0.5],[1,0.5]];portConstraint=eastwest;fontSize=12;fontColor=#000000;" parent="613" vertex="1">
                    <mxGeometry y="234" width="320" height="26" as="geometry"/>
                </mxCell>
                <mxCell id="658" value="+ operator=(EventGetCoins&amp;&amp;): EventGetCoins&amp;" style="text;strokeColor=#000000;fillColor=none;align=left;verticalAlign=top;spacingLeft=4;spacingRight=4;overflow=hidden;rotatable=0;points=[[0,0.5],[1,0.5]];portConstraint=eastwest;fontSize=12;fontColor=#000000;" parent="613" vertex="1">
                    <mxGeometry y="260" width="320" height="26" as="geometry"/>
                </mxCell>
                <mxCell id="659" value="+ operator=(EventCombat&amp;): EventGetCoins&amp;" style="text;strokeColor=#000000;fillColor=none;align=left;verticalAlign=top;spacingLeft=4;spacingRight=4;overflow=hidden;rotatable=0;points=[[0,0.5],[1,0.5]];portConstraint=eastwest;fontSize=12;fontColor=#000000;" parent="613" vertex="1">
                    <mxGeometry y="286" width="320" height="26" as="geometry"/>
                </mxCell>
                <mxCell id="635" value="+ trigger(): GameStatus" style="text;strokeColor=#000000;fillColor=none;align=left;verticalAlign=top;spacingLeft=4;spacingRight=4;overflow=hidden;rotatable=0;points=[[0,0.5],[1,0.5]];portConstraint=eastwest;fontSize=12;fontColor=#000000;" parent="613" vertex="1">
                    <mxGeometry y="312" width="320" height="26" as="geometry"/>
                </mxCell>
                <mxCell id="636" value="+ set_coins(long)" style="text;strokeColor=#000000;fillColor=none;align=left;verticalAlign=top;spacingLeft=4;spacingRight=4;overflow=hidden;rotatable=0;points=[[0,0.5],[1,0.5]];portConstraint=eastwest;fontSize=12;fontColor=#000000;" parent="613" vertex="1">
                    <mxGeometry y="338" width="320" height="26" as="geometry"/>
                </mxCell>
                <mxCell id="637" value="+ set_additional_event(EventCombat*)" style="text;strokeColor=#000000;fillColor=none;align=left;verticalAlign=top;spacingLeft=4;spacingRight=4;overflow=hidden;rotatable=0;points=[[0,0.5],[1,0.5]];portConstraint=eastwest;fontSize=12;fontColor=#000000;" parent="613" vertex="1">
                    <mxGeometry y="364" width="320" height="26" as="geometry"/>
                </mxCell>
                <mxCell id="638" value="+ get_coins(): long" style="text;strokeColor=#000000;fillColor=none;align=left;verticalAlign=top;spacingLeft=4;spacingRight=4;overflow=hidden;rotatable=0;points=[[0,0.5],[1,0.5]];portConstraint=eastwest;fontSize=12;fontColor=#000000;" parent="613" vertex="1">
                    <mxGeometry y="390" width="320" height="26" as="geometry"/>
                </mxCell>
                <mxCell id="639" value="+ get_additional_event(): EventCombat*" style="text;strokeColor=#000000;fillColor=none;align=left;verticalAlign=top;spacingLeft=4;spacingRight=4;overflow=hidden;rotatable=0;points=[[0,0.5],[1,0.5]];portConstraint=eastwest;fontSize=12;fontColor=#000000;" parent="613" vertex="1">
                    <mxGeometry y="416" width="320" height="26" as="geometry"/>
                </mxCell>
                <mxCell id="660" value="EventGetCoinsHard" style="swimlane;fontStyle=0;childLayout=stackLayout;horizontal=1;startSize=26;fillColor=none;horizontalStack=0;resizeParent=1;resizeParentMax=0;resizeLast=0;collapsible=1;marginBottom=0;fontSize=12;fontColor=#000000;strokeColor=#000000;" parent="1" vertex="1">
                    <mxGeometry x="-190" y="1328" width="180" height="52" as="geometry"/>
                </mxCell>
                <mxCell id="661" value="+ trigger(): GameStatus" style="text;strokeColor=#000000;fillColor=none;align=left;verticalAlign=top;spacingLeft=4;spacingRight=4;overflow=hidden;rotatable=0;points=[[0,0.5],[1,0.5]];portConstraint=eastwest;fontSize=12;fontColor=#000000;" parent="660" vertex="1">
                    <mxGeometry y="26" width="180" height="26" as="geometry"/>
                </mxCell>
                <mxCell id="662" value="EventMakeAllPassable" style="swimlane;fontStyle=0;childLayout=stackLayout;horizontal=1;startSize=26;fillColor=none;horizontalStack=0;resizeParent=1;resizeParentMax=0;resizeLast=0;collapsible=1;marginBottom=0;fontSize=12;fontColor=#000000;strokeColor=#000000;" parent="1" vertex="1">
                    <mxGeometry x="-800" y="124" width="220" height="52" as="geometry"/>
                </mxCell>
                <mxCell id="663" value="+ trigger(): GameStatus" style="text;strokeColor=#000000;fillColor=none;align=left;verticalAlign=top;spacingLeft=4;spacingRight=4;overflow=hidden;rotatable=0;points=[[0,0.5],[1,0.5]];portConstraint=eastwest;fontSize=12;fontColor=#000000;" parent="662" vertex="1">
                    <mxGeometry y="26" width="220" height="26" as="geometry"/>
                </mxCell>
                <mxCell id="664" value="EventMakeBorder" style="swimlane;fontStyle=0;childLayout=stackLayout;horizontal=1;startSize=26;fillColor=none;horizontalStack=0;resizeParent=1;resizeParentMax=0;resizeLast=0;collapsible=1;marginBottom=0;fontSize=12;fontColor=#000000;strokeColor=#000000;" parent="1" vertex="1">
                    <mxGeometry x="-795" y="60" width="220" height="52" as="geometry"/>
                </mxCell>
                <mxCell id="665" value="+ trigger(): GameStatus" style="text;strokeColor=#000000;fillColor=none;align=left;verticalAlign=top;spacingLeft=4;spacingRight=4;overflow=hidden;rotatable=0;points=[[0,0.5],[1,0.5]];portConstraint=eastwest;fontSize=12;fontColor=#000000;" parent="664" vertex="1">
                    <mxGeometry y="26" width="220" height="26" as="geometry"/>
                </mxCell>
                <mxCell id="666" value="EventMakeNotPassable" style="swimlane;fontStyle=0;childLayout=stackLayout;horizontal=1;startSize=26;fillColor=none;horizontalStack=0;resizeParent=1;resizeParentMax=0;resizeLast=0;collapsible=1;marginBottom=0;fontSize=12;fontColor=#000000;strokeColor=#000000;" parent="1" vertex="1">
                    <mxGeometry x="-800" y="210" width="220" height="78" as="geometry"/>
                </mxCell>
                <mxCell id="667" value="- check_field_passability()" style="text;strokeColor=#000000;fillColor=none;align=left;verticalAlign=top;spacingLeft=4;spacingRight=4;overflow=hidden;rotatable=0;points=[[0,0.5],[1,0.5]];portConstraint=eastwest;fontSize=12;fontColor=#000000;" parent="666" vertex="1">
                    <mxGeometry y="26" width="220" height="26" as="geometry"/>
                </mxCell>
                <mxCell id="668" value="+ trigger(): GameStatus" style="text;strokeColor=#000000;fillColor=none;align=left;verticalAlign=top;spacingLeft=4;spacingRight=4;overflow=hidden;rotatable=0;points=[[0,0.5],[1,0.5]];portConstraint=eastwest;fontSize=12;fontColor=#000000;" parent="666" vertex="1">
                    <mxGeometry y="52" width="220" height="26" as="geometry"/>
                </mxCell>
                <mxCell id="311" value="EventTradeOffer" style="swimlane;fontStyle=0;childLayout=stackLayout;horizontal=1;startSize=26;fillColor=none;horizontalStack=0;resizeParent=1;resizeParentMax=0;resizeLast=0;collapsible=1;marginBottom=0;fontSize=12;fontColor=#000000;strokeColor=#000000;" parent="1" vertex="1">
                    <mxGeometry y="1220" width="310" height="728" as="geometry">
                        <mxRectangle x="-180" y="-108" width="120" height="26" as="alternateBounds"/>
                    </mxGeometry>
                </mxCell>
                <mxCell id="312" value="- price: unsigned int" style="text;strokeColor=#000000;fillColor=none;align=left;verticalAlign=top;spacingLeft=4;spacingRight=4;overflow=hidden;rotatable=0;points=[[0,0.5],[1,0.5]];portConstraint=eastwest;fontSize=12;fontColor=#000000;" parent="311" vertex="1">
                    <mxGeometry y="26" width="310" height="26" as="geometry"/>
                </mxCell>
                <mxCell id="314" value="- hit_point_bonus: int" style="text;strokeColor=#000000;fillColor=none;align=left;verticalAlign=top;spacingLeft=4;spacingRight=4;overflow=hidden;rotatable=0;points=[[0,0.5],[1,0.5]];portConstraint=eastwest;fontSize=12;fontColor=#000000;" parent="311" vertex="1">
                    <mxGeometry y="52" width="310" height="26" as="geometry"/>
                </mxCell>
                <mxCell id="315" value="- strenght_bonus: int" style="text;strokeColor=#000000;fillColor=none;align=left;verticalAlign=top;spacingLeft=4;spacingRight=4;overflow=hidden;rotatable=0;points=[[0,0.5],[1,0.5]];portConstraint=eastwest;fontSize=12;fontColor=#000000;" parent="311" vertex="1">
                    <mxGeometry y="78" width="310" height="26" as="geometry"/>
                </mxCell>
                <mxCell id="316" value="- endurance_bonus: int" style="text;strokeColor=#000000;fillColor=none;align=left;verticalAlign=top;spacingLeft=4;spacingRight=4;overflow=hidden;rotatable=0;points=[[0,0.5],[1,0.5]];portConstraint=eastwest;fontSize=12;fontColor=#000000;" parent="311" vertex="1">
                    <mxGeometry y="104" width="310" height="26" as="geometry"/>
                </mxCell>
                <mxCell id="317" value="- dexterity_bonus: int" style="text;strokeColor=#000000;fillColor=none;align=left;verticalAlign=top;spacingLeft=4;spacingRight=4;overflow=hidden;rotatable=0;points=[[0,0.5],[1,0.5]];portConstraint=eastwest;fontSize=12;fontColor=#000000;" parent="311" vertex="1">
                    <mxGeometry y="130" width="310" height="26" as="geometry"/>
                </mxCell>
                <mxCell id="318" value="- armor_bonus: int" style="text;strokeColor=#000000;fillColor=none;align=left;verticalAlign=top;spacingLeft=4;spacingRight=4;overflow=hidden;rotatable=0;points=[[0,0.5],[1,0.5]];portConstraint=eastwest;fontSize=12;fontColor=#000000;" parent="311" vertex="1">
                    <mxGeometry y="156" width="310" height="26" as="geometry"/>
                </mxCell>
                <mxCell id="320" value="+ EventTradeOffer(Player*)" style="text;strokeColor=#000000;fillColor=none;align=left;verticalAlign=top;spacingLeft=4;spacingRight=4;overflow=hidden;rotatable=0;points=[[0,0.5],[1,0.5]];portConstraint=eastwest;fontSize=12;fontColor=#000000;" parent="311" vertex="1">
                    <mxGeometry y="182" width="310" height="26" as="geometry"/>
                </mxCell>
                <mxCell id="319" value="+ EventTradeOffer(Player*, unsigned int, int, int, int, int, int)" style="text;strokeColor=#000000;fillColor=none;align=left;verticalAlign=top;spacingLeft=4;spacingRight=4;overflow=hidden;rotatable=0;points=[[0,0.5],[1,0.5]];portConstraint=eastwest;fontSize=12;fontColor=#000000;" parent="311" vertex="1">
                    <mxGeometry y="208" width="310" height="26" as="geometry"/>
                </mxCell>
                <mxCell id="321" value="+ EventTradeOffer(Player*, unsigned int)" style="text;strokeColor=#000000;fillColor=none;align=left;verticalAlign=top;spacingLeft=4;spacingRight=4;overflow=hidden;rotatable=0;points=[[0,0.5],[1,0.5]];portConstraint=eastwest;fontSize=12;fontColor=#000000;" parent="311" vertex="1">
                    <mxGeometry y="234" width="310" height="26" as="geometry"/>
                </mxCell>
                <mxCell id="322" value="+ EventTradeOffer(const EventTradeOffer&amp;)" style="text;strokeColor=#000000;fillColor=none;align=left;verticalAlign=top;spacingLeft=4;spacingRight=4;overflow=hidden;rotatable=0;points=[[0,0.5],[1,0.5]];portConstraint=eastwest;fontSize=12;fontColor=#000000;" parent="311" vertex="1">
                    <mxGeometry y="260" width="310" height="26" as="geometry"/>
                </mxCell>
                <mxCell id="323" value="+ EventTradeOffer(EventTradeOffer&amp;&amp;)" style="text;strokeColor=#000000;fillColor=none;align=left;verticalAlign=top;spacingLeft=4;spacingRight=4;overflow=hidden;rotatable=0;points=[[0,0.5],[1,0.5]];portConstraint=eastwest;fontSize=12;fontColor=#000000;" parent="311" vertex="1">
                    <mxGeometry y="286" width="310" height="26" as="geometry"/>
                </mxCell>
                <mxCell id="324" value="+ operator=(const EventTradeOffer&amp;): EventTradeOffer&amp;" style="text;strokeColor=#000000;fillColor=none;align=left;verticalAlign=top;spacingLeft=4;spacingRight=4;overflow=hidden;rotatable=0;points=[[0,0.5],[1,0.5]];portConstraint=eastwest;fontSize=12;fontColor=#000000;" parent="311" vertex="1">
                    <mxGeometry y="312" width="310" height="26" as="geometry"/>
                </mxCell>
                <mxCell id="325" value="+ operator=(EventTradeOffer&amp;&amp;): EventTradeOffer&amp;" style="text;strokeColor=#000000;fillColor=none;align=left;verticalAlign=top;spacingLeft=4;spacingRight=4;overflow=hidden;rotatable=0;points=[[0,0.5],[1,0.5]];portConstraint=eastwest;fontSize=12;fontColor=#000000;" parent="311" vertex="1">
                    <mxGeometry y="338" width="310" height="26" as="geometry"/>
                </mxCell>
                <mxCell id="326" value="+ trigger(): GameStatus" style="text;strokeColor=#000000;fillColor=none;align=left;verticalAlign=top;spacingLeft=4;spacingRight=4;overflow=hidden;rotatable=0;points=[[0,0.5],[1,0.5]];portConstraint=eastwest;fontSize=12;fontColor=#000000;" parent="311" vertex="1">
                    <mxGeometry y="364" width="310" height="26" as="geometry"/>
                </mxCell>
                <mxCell id="327" value="+ set_price(unsigned int)" style="text;strokeColor=#000000;fillColor=none;align=left;verticalAlign=top;spacingLeft=4;spacingRight=4;overflow=hidden;rotatable=0;points=[[0,0.5],[1,0.5]];portConstraint=eastwest;fontSize=12;fontColor=#000000;" parent="311" vertex="1">
                    <mxGeometry y="390" width="310" height="26" as="geometry"/>
                </mxCell>
                <mxCell id="328" value="+ set_bonus(int, int, int, int, int)" style="text;strokeColor=#000000;fillColor=none;align=left;verticalAlign=top;spacingLeft=4;spacingRight=4;overflow=hidden;rotatable=0;points=[[0,0.5],[1,0.5]];portConstraint=eastwest;fontSize=12;fontColor=#000000;" parent="311" vertex="1">
                    <mxGeometry y="416" width="310" height="26" as="geometry"/>
                </mxCell>
                <mxCell id="329" value="+ set_hit_point_bonus(int)" style="text;strokeColor=#000000;fillColor=none;align=left;verticalAlign=top;spacingLeft=4;spacingRight=4;overflow=hidden;rotatable=0;points=[[0,0.5],[1,0.5]];portConstraint=eastwest;fontSize=12;fontColor=#000000;" parent="311" vertex="1">
                    <mxGeometry y="442" width="310" height="26" as="geometry"/>
                </mxCell>
                <mxCell id="330" value="+ set_strength_bonus(int)" style="text;strokeColor=#000000;fillColor=none;align=left;verticalAlign=top;spacingLeft=4;spacingRight=4;overflow=hidden;rotatable=0;points=[[0,0.5],[1,0.5]];portConstraint=eastwest;fontSize=12;fontColor=#000000;" parent="311" vertex="1">
                    <mxGeometry y="468" width="310" height="26" as="geometry"/>
                </mxCell>
                <mxCell id="331" value="+ set_endurance_bonus(int)" style="text;strokeColor=#000000;fillColor=none;align=left;verticalAlign=top;spacingLeft=4;spacingRight=4;overflow=hidden;rotatable=0;points=[[0,0.5],[1,0.5]];portConstraint=eastwest;fontSize=12;fontColor=#000000;" parent="311" vertex="1">
                    <mxGeometry y="494" width="310" height="26" as="geometry"/>
                </mxCell>
                <mxCell id="332" value="+ set_dexterity_bonus(int)" style="text;strokeColor=#000000;fillColor=none;align=left;verticalAlign=top;spacingLeft=4;spacingRight=4;overflow=hidden;rotatable=0;points=[[0,0.5],[1,0.5]];portConstraint=eastwest;fontSize=12;fontColor=#000000;" parent="311" vertex="1">
                    <mxGeometry y="520" width="310" height="26" as="geometry"/>
                </mxCell>
                <mxCell id="333" value="+ set_armor_bonus(int)" style="text;strokeColor=#000000;fillColor=none;align=left;verticalAlign=top;spacingLeft=4;spacingRight=4;overflow=hidden;rotatable=0;points=[[0,0.5],[1,0.5]];portConstraint=eastwest;fontSize=12;fontColor=#000000;" parent="311" vertex="1">
                    <mxGeometry y="546" width="310" height="26" as="geometry"/>
                </mxCell>
                <mxCell id="334" value="+ get_price(): unsigned int" style="text;strokeColor=#000000;fillColor=none;align=left;verticalAlign=top;spacingLeft=4;spacingRight=4;overflow=hidden;rotatable=0;points=[[0,0.5],[1,0.5]];portConstraint=eastwest;fontSize=12;fontColor=#000000;" parent="311" vertex="1">
                    <mxGeometry y="572" width="310" height="26" as="geometry"/>
                </mxCell>
                <mxCell id="335" value="+ get_hit_point_bonus(): int" style="text;strokeColor=#000000;fillColor=none;align=left;verticalAlign=top;spacingLeft=4;spacingRight=4;overflow=hidden;rotatable=0;points=[[0,0.5],[1,0.5]];portConstraint=eastwest;fontSize=12;fontColor=#000000;" parent="311" vertex="1">
                    <mxGeometry y="598" width="310" height="26" as="geometry"/>
                </mxCell>
                <mxCell id="336" value="+ get_strength_bonus(): int" style="text;strokeColor=#000000;fillColor=none;align=left;verticalAlign=top;spacingLeft=4;spacingRight=4;overflow=hidden;rotatable=0;points=[[0,0.5],[1,0.5]];portConstraint=eastwest;fontSize=12;fontColor=#000000;" parent="311" vertex="1">
                    <mxGeometry y="624" width="310" height="26" as="geometry"/>
                </mxCell>
                <mxCell id="337" value="+ get_endurance_bonus(): int" style="text;strokeColor=#000000;fillColor=none;align=left;verticalAlign=top;spacingLeft=4;spacingRight=4;overflow=hidden;rotatable=0;points=[[0,0.5],[1,0.5]];portConstraint=eastwest;fontSize=12;fontColor=#000000;" parent="311" vertex="1">
                    <mxGeometry y="650" width="310" height="26" as="geometry"/>
                </mxCell>
                <mxCell id="338" value="+ get_dexterity_bonus(): int" style="text;strokeColor=#000000;fillColor=none;align=left;verticalAlign=top;spacingLeft=4;spacingRight=4;overflow=hidden;rotatable=0;points=[[0,0.5],[1,0.5]];portConstraint=eastwest;fontSize=12;fontColor=#000000;" parent="311" vertex="1">
                    <mxGeometry y="676" width="310" height="26" as="geometry"/>
                </mxCell>
                <mxCell id="313" value="+ get_armor_bonus(): int" style="text;strokeColor=#000000;fillColor=none;align=left;verticalAlign=top;spacingLeft=4;spacingRight=4;overflow=hidden;rotatable=0;points=[[0,0.5],[1,0.5]];portConstraint=eastwest;fontSize=12;fontColor=#000000;" parent="311" vertex="1">
                    <mxGeometry y="702" width="310" height="26" as="geometry"/>
                </mxCell>
                <mxCell id="681" value="" style="endArrow=block;html=1;rounded=0;align=center;verticalAlign=bottom;endFill=0;labelBackgroundColor=none;endSize=8;strokeColor=#000000;edgeStyle=orthogonalEdgeStyle;entryX=1;entryY=0;entryDx=0;entryDy=0;exitX=0.5;exitY=0;exitDx=0;exitDy=0;" parent="1" source="664" target="282" edge="1">
                    <mxGeometry relative="1" as="geometry">
                        <mxPoint x="-540" y="80" as="sourcePoint"/>
                        <mxPoint x="-520" y="6" as="targetPoint"/>
                        <Array as="points">
                            <mxPoint x="-685" y="50"/>
                            <mxPoint x="-570" y="50"/>
                            <mxPoint x="-570" y="-90"/>
                        </Array>
                    </mxGeometry>
                </mxCell>
                <mxCell id="686" value="" style="endArrow=block;html=1;rounded=0;align=center;verticalAlign=bottom;endFill=0;labelBackgroundColor=none;endSize=8;strokeColor=#000000;edgeStyle=orthogonalEdgeStyle;exitX=0.5;exitY=0;exitDx=0;exitDy=0;entryX=1;entryY=0;entryDx=0;entryDy=0;" parent="1" source="662" target="282" edge="1">
                    <mxGeometry x="-0.1166" y="10" relative="1" as="geometry">
                        <mxPoint x="-790" y="80" as="sourcePoint"/>
                        <mxPoint x="-530" y="60" as="targetPoint"/>
                        <Array as="points">
                            <mxPoint x="-690" y="120"/>
                            <mxPoint x="-570" y="120"/>
                            <mxPoint x="-570" y="-90"/>
                        </Array>
                        <mxPoint as="offset"/>
                    </mxGeometry>
                </mxCell>
                <mxCell id="688" value="" style="endArrow=block;html=1;rounded=0;align=center;verticalAlign=bottom;endFill=0;labelBackgroundColor=none;endSize=8;strokeColor=#000000;edgeStyle=orthogonalEdgeStyle;exitX=0.5;exitY=0;exitDx=0;exitDy=0;entryX=1;entryY=0;entryDx=0;entryDy=0;" parent="1" source="372" edge="1" target="282">
                    <mxGeometry x="-0.1166" y="10" relative="1" as="geometry">
                        <mxPoint x="-490" y="120" as="sourcePoint"/>
                        <mxPoint x="-590" y="6" as="targetPoint"/>
                        <Array as="points">
                            <mxPoint x="-255" y="-10"/>
                            <mxPoint x="-570" y="-10"/>
                            <mxPoint x="-570" y="-90"/>
                        </Array>
                        <mxPoint as="offset"/>
                    </mxGeometry>
                </mxCell>
                <mxCell id="689" value="" style="endArrow=block;html=1;rounded=0;align=center;verticalAlign=bottom;endFill=0;labelBackgroundColor=none;endSize=8;strokeColor=#000000;edgeStyle=orthogonalEdgeStyle;entryX=0;entryY=0.5;entryDx=0;entryDy=0;exitX=0.5;exitY=0;exitDx=0;exitDy=0;" parent="1" source="666" target="386" edge="1">
                    <mxGeometry x="-0.1166" y="10" relative="1" as="geometry">
                        <mxPoint x="-740" y="200" as="sourcePoint"/>
                        <mxPoint x="-510" y="160" as="targetPoint"/>
                        <Array as="points">
                            <mxPoint x="-690" y="187"/>
                            <mxPoint x="-520" y="187"/>
                            <mxPoint x="-520" y="195"/>
                        </Array>
                        <mxPoint as="offset"/>
                    </mxGeometry>
                </mxCell>
                <mxCell id="690" value="" style="endArrow=block;html=1;rounded=0;align=center;verticalAlign=bottom;endFill=0;labelBackgroundColor=none;endSize=8;strokeColor=#000000;edgeStyle=orthogonalEdgeStyle;exitX=0.5;exitY=0;exitDx=0;exitDy=0;entryX=0;entryY=0.5;entryDx=0;entryDy=0;" parent="1" source="474" target="386" edge="1">
                    <mxGeometry x="-0.1166" y="10" relative="1" as="geometry">
                        <mxPoint x="-648" y="303" as="sourcePoint"/>
                        <mxPoint x="-470" y="210" as="targetPoint"/>
                        <Array as="points">
                            <mxPoint x="-635" y="300"/>
                            <mxPoint x="-520" y="300"/>
                            <mxPoint x="-520" y="195"/>
                        </Array>
                        <mxPoint as="offset"/>
                    </mxGeometry>
                </mxCell>
                <mxCell id="691" value="" style="endArrow=block;html=1;rounded=0;align=center;verticalAlign=bottom;endFill=0;labelBackgroundColor=none;endSize=8;strokeColor=#000000;edgeStyle=orthogonalEdgeStyle;exitX=0.5;exitY=0;exitDx=0;exitDy=0;entryX=0;entryY=0;entryDx=0;entryDy=0;" parent="1" source="522" target="144" edge="1">
                    <mxGeometry x="-0.1166" y="10" relative="1" as="geometry">
                        <mxPoint x="-660" y="563.0000000000002" as="sourcePoint"/>
                        <mxPoint x="-820" y="-160" as="targetPoint"/>
                        <Array as="points">
                            <mxPoint x="-655" y="553"/>
                            <mxPoint x="-830" y="553"/>
                            <mxPoint x="-830" y="-160"/>
                        </Array>
                        <mxPoint as="offset"/>
                    </mxGeometry>
                </mxCell>
                <mxCell id="692" value="" style="endArrow=block;html=1;rounded=0;align=center;verticalAlign=bottom;endFill=0;labelBackgroundColor=none;endSize=8;strokeColor=#000000;edgeStyle=orthogonalEdgeStyle;exitX=0.5;exitY=0;exitDx=0;exitDy=0;entryX=1;entryY=0;entryDx=0;entryDy=0;" parent="1" source="542" edge="1" target="280">
                    <mxGeometry x="-0.1166" y="10" relative="1" as="geometry">
                        <mxPoint x="-752.5" y="1123" as="sourcePoint"/>
                        <mxPoint x="-580" y="-90" as="targetPoint"/>
                        <Array as="points">
                            <mxPoint x="-310" y="1340"/>
                            <mxPoint x="-500" y="1340"/>
                            <mxPoint x="-500" y="970"/>
                            <mxPoint x="-400" y="970"/>
                            <mxPoint x="-400" y="530"/>
                            <mxPoint x="-20" y="530"/>
                            <mxPoint x="-20" y="-150"/>
                        </Array>
                        <mxPoint as="offset"/>
                    </mxGeometry>
                </mxCell>
                <mxCell id="693" value="" style="endArrow=block;html=1;rounded=0;align=center;verticalAlign=bottom;endFill=0;labelBackgroundColor=none;endSize=8;strokeColor=#000000;edgeStyle=orthogonalEdgeStyle;exitX=0.5;exitY=0;exitDx=0;exitDy=0;entryX=1;entryY=0;entryDx=0;entryDy=0;" parent="1" source="602" target="280" edge="1">
                    <mxGeometry x="-0.1166" y="10" relative="1" as="geometry">
                        <mxPoint x="-620" y="986" as="sourcePoint"/>
                        <mxPoint x="-310" y="-90" as="targetPoint"/>
                        <Array as="points">
                            <mxPoint x="-275" y="1010"/>
                            <mxPoint x="-400" y="1010"/>
                            <mxPoint x="-400" y="530"/>
                            <mxPoint x="-20" y="530"/>
                            <mxPoint x="-20" y="-150"/>
                        </Array>
                        <mxPoint as="offset"/>
                    </mxGeometry>
                </mxCell>
                <mxCell id="694" value="" style="endArrow=block;html=1;rounded=0;align=center;verticalAlign=bottom;endFill=0;labelBackgroundColor=none;endSize=8;strokeColor=#000000;edgeStyle=orthogonalEdgeStyle;exitX=0.5;exitY=0;exitDx=0;exitDy=0;entryX=1;entryY=0;entryDx=0;entryDy=0;" parent="1" source="613" target="280" edge="1">
                    <mxGeometry x="-0.1166" y="10" relative="1" as="geometry">
                        <mxPoint x="-220" y="535" as="sourcePoint"/>
                        <mxPoint x="-20" y="340" as="targetPoint"/>
                        <Array as="points">
                            <mxPoint x="-205" y="530"/>
                            <mxPoint x="-20" y="530"/>
                            <mxPoint x="-20" y="-150"/>
                        </Array>
                        <mxPoint as="offset"/>
                    </mxGeometry>
                </mxCell>
                <mxCell id="695" value="" style="endArrow=block;html=1;rounded=0;align=center;verticalAlign=bottom;endFill=0;labelBackgroundColor=none;endSize=8;strokeColor=#000000;edgeStyle=orthogonalEdgeStyle;entryX=1;entryY=0.5;entryDx=0;entryDy=0;exitX=0.5;exitY=0;exitDx=0;exitDy=0;" parent="1" source="660" target="617" edge="1">
                    <mxGeometry x="-0.1166" y="10" relative="1" as="geometry">
                        <mxPoint x="-50" y="1298" as="sourcePoint"/>
                        <mxPoint x="185" y="1275" as="targetPoint"/>
                        <Array as="points">
                            <mxPoint x="-100" y="1320"/>
                            <mxPoint x="-30" y="1320"/>
                            <mxPoint x="-30" y="661"/>
                        </Array>
                        <mxPoint as="offset"/>
                    </mxGeometry>
                </mxCell>
                <mxCell id="696" value="" style="endArrow=block;html=1;rounded=0;align=center;verticalAlign=bottom;endFill=0;labelBackgroundColor=none;endSize=8;strokeColor=#000000;edgeStyle=orthogonalEdgeStyle;exitX=0.5;exitY=0;exitDx=0;exitDy=0;entryX=1;entryY=0;entryDx=0;entryDy=0;" parent="1" source="311" target="280" edge="1">
                    <mxGeometry x="-0.1166" y="10" relative="1" as="geometry">
                        <mxPoint x="-90" y="1338" as="sourcePoint"/>
                        <mxPoint x="-130" y="-90" as="targetPoint"/>
                        <Array as="points">
                            <mxPoint x="155" y="1210"/>
                            <mxPoint x="-20" y="1210"/>
                            <mxPoint x="-20" y="-150"/>
                        </Array>
                        <mxPoint as="offset"/>
                    </mxGeometry>
                </mxCell>
                <mxCell id="698" value="" style="endArrow=block;html=1;rounded=0;align=center;verticalAlign=bottom;endFill=0;labelBackgroundColor=none;endSize=8;strokeColor=#000000;edgeStyle=orthogonalEdgeStyle;exitX=0.5;exitY=0;exitDx=0;exitDy=0;entryX=1;entryY=0;entryDx=0;entryDy=0;" parent="1" source="432" target="280" edge="1">
                    <mxGeometry x="-0.1166" y="10" relative="1" as="geometry">
                        <mxPoint y="63" as="sourcePoint"/>
                        <mxPoint x="-520" y="-90" as="targetPoint"/>
                        <Array as="points">
                            <mxPoint x="155" y="80"/>
                            <mxPoint x="-20" y="80"/>
                            <mxPoint x="-20" y="-90"/>
                        </Array>
                        <mxPoint as="offset"/>
                    </mxGeometry>
                </mxCell>
                <mxCell id="701" value="" style="endArrow=block;html=1;rounded=0;align=center;verticalAlign=bottom;endFill=0;labelBackgroundColor=none;endSize=8;strokeColor=#000000;edgeStyle=orthogonalEdgeStyle;exitX=0.5;exitY=0;exitDx=0;exitDy=0;entryX=1;entryY=0;entryDx=0;entryDy=0;" parent="1" source="341" target="280" edge="1">
                    <mxGeometry x="-0.1166" y="10" relative="1" as="geometry">
                        <mxPoint x="165" y="102" as="sourcePoint"/>
                        <mxPoint x="-570" y="-90" as="targetPoint"/>
                        <Array as="points">
                            <mxPoint x="545" y="80"/>
                            <mxPoint x="-20" y="80"/>
                            <mxPoint x="-20" y="-150"/>
                        </Array>
                        <mxPoint as="offset"/>
                    </mxGeometry>
                </mxCell>
                <mxCell id="702" value="" style="endArrow=block;html=1;rounded=0;align=center;verticalAlign=bottom;endFill=0;labelBackgroundColor=none;endSize=8;strokeColor=#000000;edgeStyle=orthogonalEdgeStyle;entryX=1;entryY=0.5;entryDx=0;entryDy=0;exitX=0.5;exitY=0;exitDx=0;exitDy=0;" parent="1" source="516" target="471" edge="1">
                    <mxGeometry x="-0.1166" y="10" relative="1" as="geometry">
                        <mxPoint x="470" y="1143" as="sourcePoint"/>
                        <mxPoint x="705" y="1120" as="targetPoint"/>
                        <Array as="points">
                            <mxPoint x="500" y="1129"/>
                        </Array>
                        <mxPoint as="offset"/>
                    </mxGeometry>
                </mxCell>
                <mxCell id="703" value="" style="endArrow=block;html=1;rounded=0;align=center;verticalAlign=bottom;endFill=0;labelBackgroundColor=none;endSize=8;strokeColor=#000000;edgeStyle=orthogonalEdgeStyle;exitX=0.5;exitY=0;exitDx=0;exitDy=0;entryX=1;entryY=0.5;entryDx=0;entryDy=0;" parent="1" source="518" target="471" edge="1">
                    <mxGeometry x="-0.1166" y="10" relative="1" as="geometry">
                        <mxPoint x="480" y="1160" as="sourcePoint"/>
                        <mxPoint x="340" y="1130" as="targetPoint"/>
                        <Array as="points">
                            <mxPoint x="500" y="1220"/>
                            <mxPoint x="380" y="1220"/>
                            <mxPoint x="380" y="1129"/>
                        </Array>
                        <mxPoint as="offset"/>
                    </mxGeometry>
                </mxCell>
                <mxCell id="704" value="" style="endArrow=block;html=1;rounded=0;align=center;verticalAlign=bottom;endFill=0;labelBackgroundColor=none;endSize=8;strokeColor=#000000;edgeStyle=orthogonalEdgeStyle;exitX=0.5;exitY=0;exitDx=0;exitDy=0;entryX=1;entryY=0.5;entryDx=0;entryDy=0;" parent="1" source="520" target="471" edge="1">
                    <mxGeometry x="-0.1166" y="10" relative="1" as="geometry">
                        <mxPoint x="480" y="1248" as="sourcePoint"/>
                        <mxPoint x="320" y="1139" as="targetPoint"/>
                        <Array as="points">
                            <mxPoint x="500" y="1310"/>
                            <mxPoint x="380" y="1310"/>
                            <mxPoint x="380" y="1129"/>
                        </Array>
                        <mxPoint as="offset"/>
                    </mxGeometry>
                </mxCell>
                <mxCell id="717" value="EventResetEvents" style="swimlane;fontStyle=0;childLayout=stackLayout;horizontal=1;startSize=26;fillColor=none;horizontalStack=0;resizeParent=1;resizeParentMax=0;resizeLast=0;collapsible=1;marginBottom=0;fontSize=12;fontColor=#000000;strokeColor=#000000;" vertex="1" parent="1">
                    <mxGeometry x="-857.5" y="1120" width="335" height="390" as="geometry">
                        <mxRectangle x="210" y="-294" width="150" height="26" as="alternateBounds"/>
                    </mxGeometry>
                </mxCell>
                <mxCell id="718" value="- is_only_null: bool" style="text;strokeColor=#000000;fillColor=none;align=left;verticalAlign=top;spacingLeft=4;spacingRight=4;overflow=hidden;rotatable=0;points=[[0,0.5],[1,0.5]];portConstraint=eastwest;fontSize=12;fontColor=#000000;" vertex="1" parent="717">
                    <mxGeometry y="26" width="335" height="26" as="geometry"/>
                </mxCell>
                <mxCell id="728" value="- setter: SetterCellEvent*" style="text;strokeColor=#000000;fillColor=none;align=left;verticalAlign=top;spacingLeft=4;spacingRight=4;overflow=hidden;rotatable=0;points=[[0,0.5],[1,0.5]];portConstraint=eastwest;fontSize=12;fontColor=#000000;" vertex="1" parent="717">
                    <mxGeometry y="52" width="335" height="26" as="geometry"/>
                </mxCell>
                <mxCell id="719" value="+ EventResetEvents(SetterCellEvent*)" style="text;strokeColor=#000000;fillColor=none;align=left;verticalAlign=top;spacingLeft=4;spacingRight=4;overflow=hidden;rotatable=0;points=[[0,0.5],[1,0.5]];portConstraint=eastwest;fontSize=12;fontColor=#000000;" vertex="1" parent="717">
                    <mxGeometry y="78" width="335" height="26" as="geometry"/>
                </mxCell>
                <mxCell id="720" value="+ EventResetEvents(SetterCellEvent*, bool)" style="text;strokeColor=#000000;fillColor=none;align=left;verticalAlign=top;spacingLeft=4;spacingRight=4;overflow=hidden;rotatable=0;points=[[0,0.5],[1,0.5]];portConstraint=eastwest;fontSize=12;fontColor=#000000;" vertex="1" parent="717">
                    <mxGeometry y="104" width="335" height="26" as="geometry"/>
                </mxCell>
                <mxCell id="721" value="+ EventResetEvents(const EventResetEvents&amp;)" style="text;strokeColor=#000000;fillColor=none;align=left;verticalAlign=top;spacingLeft=4;spacingRight=4;overflow=hidden;rotatable=0;points=[[0,0.5],[1,0.5]];portConstraint=eastwest;fontSize=12;fontColor=#000000;" vertex="1" parent="717">
                    <mxGeometry y="130" width="335" height="26" as="geometry"/>
                </mxCell>
                <mxCell id="722" value="+ EventResetEvents(EventResetEvents&amp;&amp;)" style="text;strokeColor=#000000;fillColor=none;align=left;verticalAlign=top;spacingLeft=4;spacingRight=4;overflow=hidden;rotatable=0;points=[[0,0.5],[1,0.5]];portConstraint=eastwest;fontSize=12;fontColor=#000000;" vertex="1" parent="717">
                    <mxGeometry y="156" width="335" height="26" as="geometry"/>
                </mxCell>
                <mxCell id="723" value="+ operator=(const EventResetEvents&amp;): EventResetEvents&amp;" style="text;strokeColor=#000000;fillColor=none;align=left;verticalAlign=top;spacingLeft=4;spacingRight=4;overflow=hidden;rotatable=0;points=[[0,0.5],[1,0.5]];portConstraint=eastwest;fontSize=12;fontColor=#000000;" vertex="1" parent="717">
                    <mxGeometry y="182" width="335" height="26" as="geometry"/>
                </mxCell>
                <mxCell id="724" value="+ operator=(EventResetEvents&amp;&amp;): EventResetEvents&amp;" style="text;strokeColor=#000000;fillColor=none;align=left;verticalAlign=top;spacingLeft=4;spacingRight=4;overflow=hidden;rotatable=0;points=[[0,0.5],[1,0.5]];portConstraint=eastwest;fontSize=12;fontColor=#000000;" vertex="1" parent="717">
                    <mxGeometry y="208" width="335" height="26" as="geometry"/>
                </mxCell>
                <mxCell id="729" value="+ operator=(SetterCellEvent&amp;): EventResetEvents&amp;" style="text;strokeColor=#000000;fillColor=none;align=left;verticalAlign=top;spacingLeft=4;spacingRight=4;overflow=hidden;rotatable=0;points=[[0,0.5],[1,0.5]];portConstraint=eastwest;fontSize=12;fontColor=#000000;" vertex="1" parent="717">
                    <mxGeometry y="234" width="335" height="26" as="geometry"/>
                </mxCell>
                <mxCell id="725" value="+ trigger(): GameStatus" style="text;strokeColor=#000000;fillColor=none;align=left;verticalAlign=top;spacingLeft=4;spacingRight=4;overflow=hidden;rotatable=0;points=[[0,0.5],[1,0.5]];portConstraint=eastwest;fontSize=12;fontColor=#000000;" vertex="1" parent="717">
                    <mxGeometry y="260" width="335" height="26" as="geometry"/>
                </mxCell>
                <mxCell id="726" value="+ set_setter(SetterCellEvent*)" style="text;strokeColor=#000000;fillColor=none;align=left;verticalAlign=top;spacingLeft=4;spacingRight=4;overflow=hidden;rotatable=0;points=[[0,0.5],[1,0.5]];portConstraint=eastwest;fontSize=12;fontColor=#000000;" vertex="1" parent="717">
                    <mxGeometry y="286" width="335" height="26" as="geometry"/>
                </mxCell>
                <mxCell id="730" value="+ set_is_only_null(bool)" style="text;strokeColor=#000000;fillColor=none;align=left;verticalAlign=top;spacingLeft=4;spacingRight=4;overflow=hidden;rotatable=0;points=[[0,0.5],[1,0.5]];portConstraint=eastwest;fontSize=12;fontColor=#000000;" vertex="1" parent="717">
                    <mxGeometry y="312" width="335" height="26" as="geometry"/>
                </mxCell>
                <mxCell id="727" value="+ get_setter(): SetterCellEvent*" style="text;strokeColor=#000000;fillColor=none;align=left;verticalAlign=top;spacingLeft=4;spacingRight=4;overflow=hidden;rotatable=0;points=[[0,0.5],[1,0.5]];portConstraint=eastwest;fontSize=12;fontColor=#000000;" vertex="1" parent="717">
                    <mxGeometry y="338" width="335" height="26" as="geometry"/>
                </mxCell>
                <mxCell id="731" value="+ get_is_only_null(): bool" style="text;strokeColor=#000000;fillColor=none;align=left;verticalAlign=top;spacingLeft=4;spacingRight=4;overflow=hidden;rotatable=0;points=[[0,0.5],[1,0.5]];portConstraint=eastwest;fontSize=12;fontColor=#000000;" vertex="1" parent="717">
                    <mxGeometry y="364" width="335" height="26" as="geometry"/>
                </mxCell>
                <mxCell id="739" value="SetterCellEvent" style="swimlane;fontStyle=0;childLayout=stackLayout;horizontal=1;startSize=26;fillColor=none;horizontalStack=0;resizeParent=1;resizeParentMax=0;resizeLast=0;collapsible=1;marginBottom=0;fontColor=#000000;strokeColor=#000000;" vertex="1" parent="1">
                    <mxGeometry x="-1130" y="-1140" width="380" height="624" as="geometry"/>
                </mxCell>
                <mxCell id="740" value="- field: Field*" style="text;strokeColor=#000000;fillColor=none;align=left;verticalAlign=top;spacingLeft=4;spacingRight=4;overflow=hidden;rotatable=0;points=[[0,0.5],[1,0.5]];portConstraint=eastwest;fontColor=#000000;" vertex="1" parent="739">
                    <mxGeometry y="26" width="380" height="26" as="geometry"/>
                </mxCell>
                <mxCell id="741" value="- percent_events: std::vector&lt;std::pair&lt;CellEvent*, unsigned int&gt;&gt;" style="text;strokeColor=#000000;fillColor=none;align=left;verticalAlign=top;spacingLeft=4;spacingRight=4;overflow=hidden;rotatable=0;points=[[0,0.5],[1,0.5]];portConstraint=eastwest;fontColor=#000000;" vertex="1" parent="739">
                    <mxGeometry y="52" width="380" height="26" as="geometry"/>
                </mxCell>
                <mxCell id="742" value="- singular_events: std::vector&lt;std::pair&lt;CellEvent*, unsigned int&gt;&gt;" style="text;strokeColor=#000000;fillColor=none;align=left;verticalAlign=top;spacingLeft=4;spacingRight=4;overflow=hidden;rotatable=0;points=[[0,0.5],[1,0.5]];portConstraint=eastwest;fontColor=#000000;" vertex="1" parent="739">
                    <mxGeometry y="78" width="380" height="26" as="geometry"/>
                </mxCell>
                <mxCell id="749" value="- total_percent: unsigned int" style="text;strokeColor=#000000;fillColor=none;align=left;verticalAlign=top;spacingLeft=4;spacingRight=4;overflow=hidden;rotatable=0;points=[[0,0.5],[1,0.5]];portConstraint=eastwest;fontColor=#000000;" vertex="1" parent="739">
                    <mxGeometry y="104" width="380" height="26" as="geometry"/>
                </mxCell>
                <mxCell id="748" value="- total_singular: unsigned int" style="text;strokeColor=#000000;fillColor=none;align=left;verticalAlign=top;spacingLeft=4;spacingRight=4;overflow=hidden;rotatable=0;points=[[0,0.5],[1,0.5]];portConstraint=eastwest;fontColor=#000000;" vertex="1" parent="739">
                    <mxGeometry y="130" width="380" height="26" as="geometry"/>
                </mxCell>
                <mxCell id="747" value="- reset_null()" style="text;strokeColor=#000000;fillColor=none;align=left;verticalAlign=top;spacingLeft=4;spacingRight=4;overflow=hidden;rotatable=0;points=[[0,0.5],[1,0.5]];portConstraint=eastwest;fontColor=#000000;" vertex="1" parent="739">
                    <mxGeometry y="156" width="380" height="26" as="geometry"/>
                </mxCell>
                <mxCell id="746" value="- reset_all()" style="text;strokeColor=#000000;fillColor=none;align=left;verticalAlign=top;spacingLeft=4;spacingRight=4;overflow=hidden;rotatable=0;points=[[0,0.5],[1,0.5]];portConstraint=eastwest;fontColor=#000000;" vertex="1" parent="739">
                    <mxGeometry y="182" width="380" height="26" as="geometry"/>
                </mxCell>
                <mxCell id="743" value="+ SetterCellEvent(Field*)" style="text;strokeColor=#000000;fillColor=none;align=left;verticalAlign=top;spacingLeft=4;spacingRight=4;overflow=hidden;rotatable=0;points=[[0,0.5],[1,0.5]];portConstraint=eastwest;fontColor=#000000;" vertex="1" parent="739">
                    <mxGeometry y="208" width="380" height="26" as="geometry"/>
                </mxCell>
                <mxCell id="744" value="+ SetterCellEvent(const SetterCellEvent&amp;)" style="text;strokeColor=#000000;fillColor=none;align=left;verticalAlign=top;spacingLeft=4;spacingRight=4;overflow=hidden;rotatable=0;points=[[0,0.5],[1,0.5]];portConstraint=eastwest;fontColor=#000000;" vertex="1" parent="739">
                    <mxGeometry y="234" width="380" height="26" as="geometry"/>
                </mxCell>
                <mxCell id="745" value="+ SetterCellEvent(SetterCellEvent&amp;&amp;)" style="text;strokeColor=#000000;fillColor=none;align=left;verticalAlign=top;spacingLeft=4;spacingRight=4;overflow=hidden;rotatable=0;points=[[0,0.5],[1,0.5]];portConstraint=eastwest;fontColor=#000000;" vertex="1" parent="739">
                    <mxGeometry y="260" width="380" height="26" as="geometry"/>
                </mxCell>
                <mxCell id="754" value="+ operator=(const SetterCellEvent&amp;): SetterCellEvent&amp;" style="text;strokeColor=#000000;fillColor=none;align=left;verticalAlign=top;spacingLeft=4;spacingRight=4;overflow=hidden;rotatable=0;points=[[0,0.5],[1,0.5]];portConstraint=eastwest;fontColor=#000000;" vertex="1" parent="739">
                    <mxGeometry y="286" width="380" height="26" as="geometry"/>
                </mxCell>
                <mxCell id="753" value="+ operator=(SetterCellEvent&amp;&amp;): SetterCellEvent&amp;" style="text;strokeColor=#000000;fillColor=none;align=left;verticalAlign=top;spacingLeft=4;spacingRight=4;overflow=hidden;rotatable=0;points=[[0,0.5],[1,0.5]];portConstraint=eastwest;fontColor=#000000;" vertex="1" parent="739">
                    <mxGeometry y="312" width="380" height="26" as="geometry"/>
                </mxCell>
                <mxCell id="752" value="+ set_percent_event(CellEvent*, unsigned int)" style="text;strokeColor=#000000;fillColor=none;align=left;verticalAlign=top;spacingLeft=4;spacingRight=4;overflow=hidden;rotatable=0;points=[[0,0.5],[1,0.5]];portConstraint=eastwest;fontColor=#000000;" vertex="1" parent="739">
                    <mxGeometry y="338" width="380" height="26" as="geometry"/>
                </mxCell>
                <mxCell id="765" value="+ set_percent_event(std::pair&lt;CellEvent*, unsigned int&gt;)" style="text;strokeColor=#000000;fillColor=none;align=left;verticalAlign=top;spacingLeft=4;spacingRight=4;overflow=hidden;rotatable=0;points=[[0,0.5],[1,0.5]];portConstraint=eastwest;fontColor=#000000;" vertex="1" parent="739">
                    <mxGeometry y="364" width="380" height="26" as="geometry"/>
                </mxCell>
                <mxCell id="751" value="+ set_singular_event(CellEvent*, unsigned int)" style="text;strokeColor=#000000;fillColor=none;align=left;verticalAlign=top;spacingLeft=4;spacingRight=4;overflow=hidden;rotatable=0;points=[[0,0.5],[1,0.5]];portConstraint=eastwest;fontColor=#000000;" vertex="1" parent="739">
                    <mxGeometry y="390" width="380" height="26" as="geometry"/>
                </mxCell>
                <mxCell id="750" value="+ set_singular_event(std::pair&lt;CellEvent*, unsigned int&gt;)" style="text;strokeColor=#000000;fillColor=none;align=left;verticalAlign=top;spacingLeft=4;spacingRight=4;overflow=hidden;rotatable=0;points=[[0,0.5],[1,0.5]];portConstraint=eastwest;fontColor=#000000;" vertex="1" parent="739">
                    <mxGeometry y="416" width="380" height="26" as="geometry"/>
                </mxCell>
                <mxCell id="772" value="+ set_field(Field*)" style="text;strokeColor=#000000;fillColor=none;align=left;verticalAlign=top;spacingLeft=4;spacingRight=4;overflow=hidden;rotatable=0;points=[[0,0.5],[1,0.5]];portConstraint=eastwest;fontColor=#000000;" vertex="1" parent="739">
                    <mxGeometry y="442" width="380" height="26" as="geometry"/>
                </mxCell>
                <mxCell id="771" value="+ get_percent_event(unsigned int): std:pair&lt;CellEvent*, unsigned int&gt;" style="text;strokeColor=#000000;fillColor=none;align=left;verticalAlign=top;spacingLeft=4;spacingRight=4;overflow=hidden;rotatable=0;points=[[0,0.5],[1,0.5]];portConstraint=eastwest;fontColor=#000000;" vertex="1" parent="739">
                    <mxGeometry y="468" width="380" height="26" as="geometry"/>
                </mxCell>
                <mxCell id="770" value="+ get_singular_event(unsigned int): std:pair&lt;CellEvent*, unsigned int&gt;" style="text;strokeColor=#000000;fillColor=none;align=left;verticalAlign=top;spacingLeft=4;spacingRight=4;overflow=hidden;rotatable=0;points=[[0,0.5],[1,0.5]];portConstraint=eastwest;fontColor=#000000;" vertex="1" parent="739">
                    <mxGeometry y="494" width="380" height="26" as="geometry"/>
                </mxCell>
                <mxCell id="769" value="+ get_percent_events_amount(): unsigned int" style="text;strokeColor=#000000;fillColor=none;align=left;verticalAlign=top;spacingLeft=4;spacingRight=4;overflow=hidden;rotatable=0;points=[[0,0.5],[1,0.5]];portConstraint=eastwest;fontColor=#000000;" vertex="1" parent="739">
                    <mxGeometry y="520" width="380" height="26" as="geometry"/>
                </mxCell>
                <mxCell id="768" value="+ get_singular_events_amount(): unsigned int" style="text;strokeColor=#000000;fillColor=none;align=left;verticalAlign=top;spacingLeft=4;spacingRight=4;overflow=hidden;rotatable=0;points=[[0,0.5],[1,0.5]];portConstraint=eastwest;fontColor=#000000;" vertex="1" parent="739">
                    <mxGeometry y="546" width="380" height="26" as="geometry"/>
                </mxCell>
                <mxCell id="767" value="+ get_field(): Field*" style="text;strokeColor=#000000;fillColor=none;align=left;verticalAlign=top;spacingLeft=4;spacingRight=4;overflow=hidden;rotatable=0;points=[[0,0.5],[1,0.5]];portConstraint=eastwest;fontColor=#000000;" vertex="1" parent="739">
                    <mxGeometry y="572" width="380" height="26" as="geometry"/>
                </mxCell>
                <mxCell id="766" value="+ set(bool)" style="text;strokeColor=#000000;fillColor=none;align=left;verticalAlign=top;spacingLeft=4;spacingRight=4;overflow=hidden;rotatable=0;points=[[0,0.5],[1,0.5]];portConstraint=eastwest;fontColor=#000000;" vertex="1" parent="739">
                    <mxGeometry y="598" width="380" height="26" as="geometry"/>
                </mxCell>
                <mxCell id="773" value="" style="endArrow=block;html=1;rounded=0;align=center;verticalAlign=bottom;endFill=0;labelBackgroundColor=none;endSize=8;strokeColor=#000000;edgeStyle=orthogonalEdgeStyle;entryX=0;entryY=0;entryDx=0;entryDy=0;exitX=0.5;exitY=0;exitDx=0;exitDy=0;" edge="1" parent="1" source="717" target="144">
                    <mxGeometry relative="1" as="geometry">
                        <mxPoint x="-740" y="1110" as="sourcePoint"/>
                        <mxPoint x="-810" y="-190" as="targetPoint"/>
                        <Array as="points">
                            <mxPoint x="-690" y="1100"/>
                            <mxPoint x="-830" y="1100"/>
                            <mxPoint x="-830" y="-160"/>
                        </Array>
                    </mxGeometry>
                </mxCell>
                <mxCell id="774" value="" style="endArrow=none;startArrow=diamondThin;endFill=0;startFill=0;html=1;verticalAlign=bottom;labelBackgroundColor=none;strokeWidth=1;startSize=8;endSize=8;fontFamily=Helvetica;fontSize=12;fontColor=#000000;strokeColor=#000000;edgeStyle=orthogonalEdgeStyle;entryX=0.5;entryY=0;entryDx=0;entryDy=0;exitX=1;exitY=0.5;exitDx=0;exitDy=0;" edge="1" parent="1" source="740" target="132">
                    <mxGeometry width="160" relative="1" as="geometry">
                        <mxPoint x="-360" y="-1065" as="sourcePoint"/>
                        <mxPoint x="-300" y="-950" as="targetPoint"/>
                        <Array as="points">
                            <mxPoint x="-400" y="-1101"/>
                            <mxPoint x="-400" y="-970"/>
                            <mxPoint x="-310" y="-970"/>
                        </Array>
                    </mxGeometry>
                </mxCell>
                <mxCell id="775" value="" style="endArrow=none;startArrow=diamondThin;endFill=0;startFill=0;html=1;verticalAlign=bottom;labelBackgroundColor=none;strokeWidth=1;startSize=8;endSize=8;fontFamily=Helvetica;fontSize=12;fontColor=#000000;strokeColor=#000000;edgeStyle=orthogonalEdgeStyle;entryX=0.5;entryY=0;entryDx=0;entryDy=0;exitX=0;exitY=0.5;exitDx=0;exitDy=0;" edge="1" parent="1" source="728" target="739">
                    <mxGeometry width="160" relative="1" as="geometry">
                        <mxPoint x="-1140" y="1150" as="sourcePoint"/>
                        <mxPoint x="-1140" y="-995" as="targetPoint"/>
                        <Array as="points">
                            <mxPoint x="-1140" y="1185"/>
                            <mxPoint x="-1140" y="-1150"/>
                            <mxPoint x="-940" y="-1150"/>
                        </Array>
                    </mxGeometry>
                </mxCell>
                <mxCell id="776" value="" style="endArrow=none;startArrow=diamondThin;endFill=0;startFill=0;html=1;verticalAlign=bottom;labelBackgroundColor=none;strokeWidth=1;startSize=8;endSize=8;elbow=vertical;fontColor=#000000;strokeColor=#000000;edgeStyle=orthogonalEdgeStyle;entryX=0.5;entryY=0;entryDx=0;entryDy=0;exitX=0;exitY=0.5;exitDx=0;exitDy=0;" edge="1" parent="1" source="732" target="144">
                    <mxGeometry width="160" relative="1" as="geometry">
                        <mxPoint x="-695" y="-870" as="sourcePoint"/>
                        <mxPoint x="-685" y="-150.00000000000023" as="targetPoint"/>
                        <Array as="points">
                            <mxPoint x="-695" y="-843"/>
                        </Array>
                    </mxGeometry>
                </mxCell>
            </root>
        </mxGraphModel>
    </diagram>
</mxfile>